<svg width="27" height="28" viewBox="0 0 27 28" fill="none" xmlns="http://www.w3.org/2000/svg">
<path fill-rule="evenodd" clip-rule="evenodd" d="M2.19979 23.9631C2.19979 24.3997 2.37324 24.8185 2.682 25.1273C2.99076 25.436 3.40952 25.6095 3.84617 25.6095L23.6027 25.6095C24.0394 25.6095 24.4582 25.436 24.7669 25.1273C25.0757 24.8185 25.2491 24.3997 25.2491 23.9631L25.2491 4.20652C25.2491 3.76987 25.0757 3.35111 24.7669 3.04235C24.4582 2.73359 24.0394 2.56014 23.6027 2.56014L3.84617 2.56014C3.40952 2.56014 2.99076 2.73359 2.682 3.04235C2.37324 3.35111 2.19979 3.76987 2.19979 4.20652L2.19979 23.9631ZM26.8955 23.9631C26.8955 24.8364 26.5486 25.6739 25.9311 26.2914C25.3136 26.9089 24.476 27.2559 23.6027 27.2559L3.84617 27.2559C2.97287 27.2559 2.13534 26.9089 1.51783 26.2914C0.900319 25.6739 0.553404 24.8364 0.553404 23.9631L0.553404 4.20652C0.553404 3.33322 0.900319 2.4957 1.51783 1.87818C2.13534 1.26067 2.97287 0.913755 3.84617 0.913755L23.6027 0.913755C24.476 0.913755 25.3136 1.26067 25.9311 1.87818C26.5486 2.4957 26.8955 3.33322 26.8955 4.20652L26.8955 23.9631ZM12.9013 19.8471C12.9013 20.0655 12.988 20.2748 13.1424 20.4292C13.2967 20.5836 13.5061 20.6703 13.7245 20.6703C13.9428 20.6703 14.1522 20.5836 14.3065 20.4292C14.4609 20.2748 14.5476 20.0655 14.5476 19.8471V10.3097L18.0808 13.8444C18.2354 13.999 18.445 14.0858 18.6636 14.0858C18.8822 14.0858 19.0918 13.999 19.2464 13.8444C19.401 13.6899 19.4878 13.4802 19.4878 13.2616C19.4878 13.043 19.401 12.8334 19.2464 12.6788L14.3073 7.73965C14.2308 7.66299 14.14 7.60217 14.04 7.56067C13.9399 7.51917 13.8327 7.49781 13.7245 7.49781C13.6162 7.49781 13.509 7.51917 13.409 7.56067C13.3089 7.60217 13.2181 7.66299 13.1416 7.73965L8.20249 12.6788C8.04792 12.8334 7.96108 13.043 7.96108 13.2616C7.96108 13.4802 8.04792 13.6899 8.20249 13.8444C8.35706 13.999 8.56671 14.0858 8.78531 14.0858C9.00391 14.0858 9.21356 13.999 9.36813 13.8444L12.9013 10.3097V19.8471Z" fill="#EEAF15"/>
</svg>
