<svg width="26" height="19" viewBox="0 0 26 19" fill="none" xmlns="http://www.w3.org/2000/svg">
<path d="M26 9.34665C26 9.28281 26 9.21027 25.9971 9.12612C25.9942 8.89107 25.9884 8.62701 25.9826 8.34554C25.9594 7.53594 25.9187 6.72924 25.8549 5.96897C25.7679 4.92143 25.6402 4.04799 25.4661 3.39219C25.2823 2.7078 24.9222 2.08362 24.4216 1.58204C23.9211 1.08046 23.2976 0.719051 22.6136 0.533928C21.7924 0.313393 20.1848 0.177009 17.9214 0.0928571C16.8449 0.0522321 15.6929 0.0261159 14.5408 0.011607C14.1375 0.00580339 13.7632 0.00290179 13.4266 0H12.5734C12.2368 0.00290179 11.8625 0.00580339 11.4592 0.011607C10.3071 0.0261159 9.15513 0.0522321 8.07857 0.0928571C5.81518 0.179911 4.20469 0.316294 3.38638 0.533928C2.70215 0.718597 2.07846 1.07986 1.57783 1.58151C1.0772 2.08316 0.717206 2.70758 0.533929 3.39219C0.35692 4.04799 0.232143 4.92143 0.145089 5.96897C0.08125 6.72924 0.040625 7.53594 0.0174107 8.34554C0.00870531 8.62701 0.00580353 8.89107 0.00290174 9.12612C0.00290174 9.21027 0 9.28281 0 9.34665V9.50915C0 9.57299 -4.4321e-08 9.64554 0.00290174 9.72969C0.00580353 9.96473 0.0116071 10.2288 0.0174107 10.5103C0.040625 11.3199 0.08125 12.1266 0.145089 12.8868C0.232143 13.9344 0.359821 14.8078 0.533929 15.4636C0.905357 16.8536 1.99643 17.9504 3.38638 18.3219C4.20469 18.5424 5.81518 18.6788 8.07857 18.7629C9.15513 18.8036 10.3071 18.8297 11.4592 18.8442C11.8625 18.85 12.2368 18.8529 12.5734 18.8558H13.4266C13.7632 18.8529 14.1375 18.85 14.5408 18.8442C15.6929 18.8297 16.8449 18.8036 17.9214 18.7629C20.1848 18.6759 21.7953 18.5395 22.6136 18.3219C24.0036 17.9504 25.0946 16.8565 25.4661 15.4636C25.6431 14.8078 25.7679 13.9344 25.8549 12.8868C25.9187 12.1266 25.9594 11.3199 25.9826 10.5103C25.9913 10.2288 25.9942 9.96473 25.9971 9.72969C25.9971 9.64554 26 9.57299 26 9.50915V9.34665ZM23.9107 9.49755C23.9107 9.55848 23.9107 9.62522 23.9078 9.70357C23.9049 9.92991 23.8991 10.1795 23.8933 10.4493C23.873 11.2212 23.8324 11.9931 23.7714 12.7098C23.6931 13.6442 23.5828 14.4103 23.4464 14.9239C23.2665 15.5942 22.7384 16.1252 22.071 16.3022C21.4616 16.4647 19.9266 16.5953 17.8402 16.6737C16.7839 16.7143 15.6464 16.7404 14.5118 16.7549C14.1143 16.7607 13.7458 16.7636 13.415 16.7636H12.585L11.4882 16.7549C10.3536 16.7404 9.21897 16.7143 8.15982 16.6737C6.07344 16.5924 4.53549 16.4647 3.92902 16.3022C3.26161 16.1223 2.73348 15.5942 2.55357 14.9239C2.41719 14.4103 2.30692 13.6442 2.22857 12.7098C2.16763 11.9931 2.12991 11.2212 2.1067 10.4493C2.09799 10.1795 2.09509 9.92701 2.09219 9.70357C2.09219 9.62522 2.08929 9.55558 2.08929 9.49755V9.35826C2.08929 9.29732 2.08929 9.23058 2.09219 9.15223C2.09509 8.92589 2.10089 8.67634 2.1067 8.40647C2.12701 7.6346 2.16763 6.86272 2.22857 6.14598C2.30692 5.21161 2.41719 4.44554 2.55357 3.93192C2.73348 3.26161 3.26161 2.73058 3.92902 2.55357C4.53839 2.39107 6.07344 2.26049 8.15982 2.18214C9.21607 2.14152 10.3536 2.1154 11.4882 2.10089C11.8857 2.09509 12.2542 2.09219 12.585 2.09219H13.415L14.5118 2.10089C15.6464 2.1154 16.781 2.14152 17.8402 2.18214C19.9266 2.26339 21.4645 2.39107 22.071 2.55357C22.7384 2.73348 23.2665 3.26161 23.4464 3.93192C23.5828 4.44554 23.6931 5.21161 23.7714 6.14598C23.8324 6.86272 23.8701 7.6346 23.8933 8.40647C23.902 8.67634 23.9049 8.92879 23.9078 9.15223C23.9078 9.23058 23.9107 9.30022 23.9107 9.35826V9.49755ZM10.4174 13.3163L17.1496 9.39888L10.4174 5.53951V13.3163Z" fill="#EEAF15"/>
</svg>
