<svg width="27" height="27" viewBox="0 0 27 27" fill="none" xmlns="http://www.w3.org/2000/svg">
<path fill-rule="evenodd" clip-rule="evenodd" d="M25.2492 3.88822C25.2492 3.45157 25.0757 3.03281 24.767 2.72405C24.4582 2.4153 24.0395 2.24184 23.6028 2.24184H3.84623C3.40958 2.24184 2.99082 2.4153 2.68206 2.72405C2.37331 3.03281 2.19985 3.45157 2.19985 3.88822V23.6448C2.19985 24.0814 2.37331 24.5002 2.68206 24.809C2.99082 25.1177 3.40958 25.2912 3.84623 25.2912H23.6028C24.0395 25.2912 24.4582 25.1177 24.767 24.809C25.0757 24.5002 25.2492 24.0814 25.2492 23.6448V3.88822ZM0.553467 3.88822C0.553467 3.01493 0.900382 2.1774 1.51789 1.55989C2.13541 0.942374 2.97293 0.595459 3.84623 0.595459L23.6028 0.595459C24.4761 0.595459 25.3136 0.942374 25.9311 1.55989C26.5487 2.1774 26.8956 3.01493 26.8956 3.88822V23.6448C26.8956 24.5181 26.5487 25.3556 25.9311 25.9731C25.3136 26.5906 24.4761 26.9376 23.6028 26.9376H3.84623C2.97293 26.9376 2.13541 26.5906 1.51789 25.9731C0.900382 25.3556 0.553467 24.5181 0.553467 23.6448V3.88822ZM14.5477 8.00418C14.5477 7.78585 14.461 7.57647 14.3066 7.42209C14.1522 7.26771 13.9428 7.18098 13.7245 7.18098C13.5062 7.18098 13.2968 7.26771 13.1424 7.42209C12.9881 7.57647 12.9013 7.78585 12.9013 8.00418V17.5417L9.36819 14.0069C9.21362 13.8523 9.00397 13.7655 8.78537 13.7655C8.56677 13.7655 8.35713 13.8523 8.20256 14.0069C8.04798 14.1615 7.96114 14.3711 7.96114 14.5897C7.96114 14.8083 8.04798 15.0179 8.20256 15.1725L13.1417 20.1117C13.2182 20.1883 13.309 20.2491 13.409 20.2906C13.509 20.3321 13.6162 20.3535 13.7245 20.3535C13.8328 20.3535 13.94 20.3321 14.04 20.2906C14.14 20.2491 14.2309 20.1883 14.3073 20.1117L19.2465 15.1725C19.4011 15.0179 19.4879 14.8083 19.4879 14.5897C19.4879 14.3711 19.4011 14.1615 19.2465 14.0069C19.0919 13.8523 18.8823 13.7655 18.6637 13.7655C18.4451 13.7655 18.2354 13.8523 18.0808 14.0069L14.5477 17.5417V8.00418Z" fill="#EEAF15"/>
</svg>
