<svg width="25" height="18" viewBox="0 0 25 18" fill="none" xmlns="http://www.w3.org/2000/svg">
<path d="M23.0286 0H1.77143C1.30162 0 0.851047 0.186632 0.518839 0.518839C0.186632 0.851047 0 1.30162 0 1.77143V15.9429C0 16.4127 0.186632 16.8632 0.518839 17.1954C0.851047 17.5277 1.30162 17.7143 1.77143 17.7143H23.0286C23.4984 17.7143 23.949 17.5277 24.2812 17.1954C24.6134 16.8632 24.8 16.4127 24.8 15.9429V1.77143C24.8 1.30162 24.6134 0.851047 24.2812 0.518839C23.949 0.186632 23.4984 0 23.0286 0ZM21.08 1.77143L12.4 7.77657L3.72 1.77143H21.08ZM1.77143 15.9429V2.57743L11.8951 9.58343C12.0434 9.68628 12.2196 9.7414 12.4 9.7414C12.5804 9.7414 12.7566 9.68628 12.9049 9.58343L23.0286 2.57743V15.9429H1.77143Z" fill="#EEAF15"/>
</svg>
