<svg width="39" height="36" viewBox="0 0 39 36" fill="none" xmlns="http://www.w3.org/2000/svg">
<path d="M0.0944456 15.637C5.00603 6.22946 15.6905 1.25094 23.2122 0.208379C26.2757 -0.216199 28.8539 0.0118308 30.3625 0.857755C32.08 1.82083 32.5403 3.45951 31.0681 5.72604C29.986 7.39232 27.7456 9.45483 24.0117 11.8907C27.0971 12.5666 30.3809 14.025 33.718 16.6072C37.8376 19.7951 39.0722 23.6223 38.3064 26.9989C37.9341 28.6396 37.0883 30.1668 35.8712 31.4551C34.6644 32.7328 33.0897 33.7785 31.2488 34.4696C26.1802 36.3721 19.0743 35.5865 12.0903 29.5115L12.8229 28.6698C19.4498 34.4342 26.1273 35.2039 30.8604 33.4273C32.5364 32.798 33.967 31.8493 35.06 30.692C36.1426 29.5459 36.8932 28.1963 37.2202 26.7546C37.8952 23.7787 36.7654 20.3729 33.0375 17.4883C29.4282 14.6953 25.8908 13.2813 22.6249 12.7698C19.3506 14.7896 15.0943 17.0465 9.68202 19.5293L9.6798 19.5315C7.848 20.3618 6.60981 20.5691 5.90513 20.3657C4.64469 20.002 4.67608 18.7957 5.78918 17.3356C6.65135 16.2045 8.23971 14.854 10.3603 13.7337C13.4284 12.1131 17.6381 10.9515 22.4107 11.6057C26.5901 8.9972 29.0247 6.82926 30.135 5.11987C31.1589 3.54324 30.907 2.4414 29.8173 1.83034C28.5179 1.10176 26.1907 0.920071 23.3647 1.31178C16.1056 2.3177 5.80173 7.10834 1.08014 16.1518C0.592048 16.9971 -0.290065 16.3032 0.0944456 15.637ZM9.22217 18.5155C13.9487 16.348 17.7712 14.3656 20.8126 12.5738C16.8985 12.3396 13.4602 13.3563 10.8794 14.7195C8.91023 15.7599 7.45232 16.9913 6.67471 18.0117C6.14803 18.7026 5.94483 19.2194 6.21486 19.2972C6.68182 19.4319 7.6509 19.2274 9.22217 18.5155Z" fill="white"/>
<path fill-rule="evenodd" clip-rule="evenodd" d="M7.99413 30.9255L8.551 31.3575C8.73573 31.3677 8.72549 31.2506 8.82547 30.9859C8.88455 30.8293 8.94401 30.6647 8.99921 30.5043C9.11083 30.1799 9.23537 29.86 9.34587 29.5395C9.45343 29.2275 9.5703 28.8971 9.68976 28.5864C9.73075 28.4797 9.8239 28.1714 9.86739 28.1022C9.97106 27.9375 10.2325 28.2183 10.3517 28.3107C10.6803 28.5657 11.0469 28.8289 11.3614 29.0948C11.6393 29.3295 11.4347 29.6866 11.4999 29.9971C11.5335 30.1571 11.7469 30.2835 11.8973 30.4007C11.9842 30.4684 12.057 30.5178 12.1335 30.425C12.2106 30.3314 12.5227 29.3783 12.6529 29.2105C12.7841 29.0412 13.6077 28.5186 13.6927 28.4153C13.7703 28.321 13.7143 28.2575 13.6289 28.1911C13.4853 28.0791 13.2974 27.8919 13.1286 27.8982C13.0255 27.902 12.8084 27.9827 12.6926 28.0165C12.5358 28.0622 12.4084 28.1178 12.2305 27.9956C11.8722 27.7496 11.3475 27.313 10.9647 27.0154C10.7041 26.8128 10.9153 26.7731 11.3039 26.5017C11.5779 26.3103 11.8656 26.113 12.1509 25.9254L13.4132 25.0683C13.6603 24.8989 13.7648 24.8779 13.7136 24.7039L13.1333 24.2536C13.045 24.2577 13.04 24.2183 12.908 24.2545C12.7868 24.2878 11.6532 24.7465 11.4831 24.8108C10.8066 25.0661 10.1306 25.3507 9.44576 25.613C9.25974 25.6843 9.19512 25.6424 8.99875 25.4897C8.68367 25.2447 8.36812 25.0004 8.05275 24.7557C7.7902 24.5519 7.40273 24.1964 7.11885 24.1187C6.18337 23.8628 5.99818 24.6869 6.35906 25.1614C6.53013 25.3863 6.99837 25.709 7.248 25.9027C7.56337 26.1474 7.87864 26.3922 8.19428 26.6366C8.48564 26.8622 8.35131 26.9899 8.31208 27.4753C8.29029 27.7456 8.23573 28.0627 8.20508 28.3423C8.17812 28.5883 8.11664 28.9747 8.09642 29.2095C8.06549 29.5696 7.98361 30.1239 7.93394 30.5142C7.89766 30.8001 7.90513 30.7408 7.99413 30.9255Z" fill="white"/>
</svg>
