<svg width="22" height="22" viewBox="0 0 22 22" fill="none" xmlns="http://www.w3.org/2000/svg">
<g clip-path="url(#clip0_9499_29)">
<path fill-rule="evenodd" clip-rule="evenodd" d="M15.9638 13.1835C15.6906 13.0469 14.3513 12.3887 14.102 12.2971C13.8527 12.2063 13.6712 12.1614 13.4888 12.4346C13.3073 12.7059 12.7857 13.3201 12.6271 13.5016C12.4676 13.684 12.309 13.706 12.0367 13.5703C11.7645 13.4328 10.8863 13.1459 9.84592 12.2182C9.0365 11.4959 8.48925 10.604 8.33067 10.3308C8.17208 10.0586 8.31325 9.91098 8.44983 9.77531C8.57267 9.65339 8.72208 9.45723 8.85867 9.29864C8.99525 9.13914 9.04017 9.02548 9.13092 8.84306C9.22258 8.66156 9.17675 8.50298 9.108 8.36639C9.04017 8.22981 8.49567 6.88873 8.26833 6.34331C8.04742 5.81256 7.82283 5.88498 7.656 5.87581C7.4965 5.86848 7.315 5.86664 7.1335 5.86664C6.952 5.86664 6.65683 5.93448 6.4075 6.20764C6.15725 6.47989 5.45417 7.13898 5.45417 8.48006C5.45417 9.82023 6.4295 11.1155 6.56608 11.2979C6.70267 11.4794 8.4865 14.2312 11.2191 15.411C11.8699 15.6915 12.3768 15.8592 12.7719 15.9839C13.4246 16.192 14.0186 16.1626 14.4879 16.0921C15.0104 16.0141 16.0994 15.433 16.3268 14.7968C16.5532 14.1606 16.5532 13.6152 16.4853 13.5016C16.4175 13.3879 16.236 13.3201 15.9628 13.1835H15.9638ZM10.9936 19.9696H10.9899C9.36689 19.9699 7.77367 19.5336 6.37725 18.7064L6.04725 18.5102L2.61708 19.4104L3.53283 16.0664L3.31742 15.7236C2.41004 14.2792 1.92985 12.6076 1.93233 10.9019C1.93417 5.90606 5.99867 1.84156 10.9972 1.84156C13.4172 1.84156 15.6924 2.78573 17.4029 4.49806C18.2466 5.33826 18.9153 6.33741 19.3703 7.43772C19.8254 8.53802 20.0577 9.71763 20.0539 10.9083C20.0521 15.9041 15.9876 19.9696 10.9936 19.9696ZM18.7046 3.19731C17.6946 2.18066 16.4929 1.37455 15.1691 0.82571C13.8453 0.276868 12.4257 -0.00379759 10.9927 -2.34724e-05C4.98483 -2.34724e-05 0.0935 4.89039 0.0916667 10.901C0.0888828 12.8138 0.590677 14.6936 1.54642 16.3506L0 22L5.77867 20.4838C7.37722 21.3548 9.16859 21.8111 10.989 21.8111H10.9936C17.0014 21.8111 21.8927 16.9207 21.8946 10.9092C21.899 9.47673 21.6194 8.05757 21.0718 6.73384C20.5243 5.41011 19.7197 4.20809 18.7046 3.19731Z" fill="#EEAF15"/>
</g>
<defs>
<clipPath id="clip0_9499_29">
<rect width="22" height="22" fill="white"/>
</clipPath>
</defs>
</svg>
