<svg width="40" height="40" viewBox="0 0 40 40" fill="none" xmlns="http://www.w3.org/2000/svg">
<path d="M5.33342 35.6667C5.16999 35.6667 5.00905 35.6267 4.86467 35.5501C4.72029 35.4735 4.59689 35.3627 4.50525 35.2274C4.41361 35.0921 4.35653 34.9364 4.33901 34.7739C4.3215 34.6114 4.34407 34.4471 4.40475 34.2954L6.76809 28.3874C4.70347 25.1299 3.91296 21.2252 4.54791 17.4212C5.18286 13.6171 7.19865 10.1809 10.2093 7.77054C13.22 5.36016 17.014 4.14497 20.8648 4.35766C24.7156 4.57035 28.3527 6.19596 31.0796 8.92324C33.8065 11.6505 35.4316 15.2878 35.6437 19.1387C35.8559 22.9895 34.6402 26.7833 32.2294 29.7936C29.8186 32.804 26.3821 34.8193 22.578 35.4537C18.7738 36.0882 14.8693 35.2971 11.6121 33.232L5.70542 35.5954C5.58706 35.6425 5.46082 35.6667 5.33342 35.6667ZM11.7261 31.1094C11.9279 31.1094 12.125 31.1706 12.2914 31.2847C15.1029 33.2052 18.5299 34.0072 21.9016 33.5335C25.2733 33.0599 28.3468 31.3447 30.5202 28.7239C32.6937 26.103 33.8106 22.7653 33.6522 19.3642C33.4939 15.9631 32.0717 12.7435 29.6642 10.336C27.2566 7.92841 24.0371 6.50623 20.6359 6.34788C17.2348 6.18954 13.8971 7.30644 11.2763 9.47989C8.65542 11.6533 6.94026 14.7268 6.46659 18.0985C5.99293 21.4702 6.79488 24.8973 8.71542 27.7087C8.80784 27.8439 8.86566 27.9997 8.8838 28.1624C8.90193 28.3251 8.87982 28.4898 8.81942 28.642L7.12809 32.8694L11.3541 31.178C11.4726 31.1317 11.5988 31.1084 11.7261 31.1094Z" fill="#EEAF15"/>
<path d="M25.6254 27.506L27.7527 25.378C27.8312 25.2997 27.8935 25.2067 27.936 25.1043C27.9785 25.0019 28.0003 24.8922 28.0003 24.7813C28.0003 24.6705 27.9785 24.5607 27.936 24.4583C27.8935 24.3559 27.8312 24.2629 27.7527 24.1847L24.7687 21.2C24.6103 21.0417 24.3956 20.9529 24.1717 20.9529C23.9478 20.9529 23.7331 21.0417 23.5747 21.2L22.3807 22.394C21.2542 22.051 20.2293 21.4361 19.3966 20.6034C18.5639 19.7707 17.949 18.7459 17.6061 17.6193L18.8001 16.4253C18.9583 16.2669 19.0472 16.0522 19.0472 15.8283C19.0472 15.6044 18.9583 15.3897 18.8001 15.2313L15.8154 12.2473C15.7371 12.1688 15.6441 12.1066 15.5417 12.0641C15.4393 12.0216 15.3296 11.9997 15.2187 11.9997C15.1079 11.9997 14.9981 12.0216 14.8957 12.0641C14.7933 12.1066 14.7003 12.1688 14.6221 12.2473L12.4941 14.3747C12.2396 14.6306 12.0732 14.9609 12.019 15.3177C11.9648 15.6746 12.0257 16.0394 12.1927 16.3593C14.7028 21.2894 18.7106 25.2973 23.6407 27.8073C23.9607 27.9744 24.3255 28.0352 24.6823 27.981C25.0391 27.9268 25.3694 27.7605 25.6254 27.506V27.506Z" fill="#EEAF15"/>
<path d="M5.33325 21C5.06804 21 4.81368 20.8947 4.62615 20.7071C4.43861 20.5196 4.33325 20.2653 4.33325 20C4.33802 15.8464 5.99014 11.8643 8.92717 8.9273C11.8642 5.99026 15.8463 4.33814 19.9999 4.33337C20.2651 4.33337 20.5195 4.43873 20.707 4.62627C20.8946 4.8138 20.9999 5.06816 20.9999 5.33337C20.9999 5.59859 20.8946 5.85294 20.707 6.04048C20.5195 6.22802 20.2651 6.33337 19.9999 6.33337C16.3765 6.33743 12.9027 7.77861 10.3406 10.3407C7.77849 12.9028 6.33731 16.3767 6.33325 20C6.33325 20.2653 6.2279 20.5196 6.04036 20.7071C5.85282 20.8947 5.59847 21 5.33325 21Z" fill="#EEAF15"/>
</svg>
