<svg width="105" height="46" viewBox="0 0 105 46" fill="none" xmlns="http://www.w3.org/2000/svg">
<path d="M0.139404 29.1861H4.22586V39.8955H7.40818V29.1861H11.361V25.9971H0.139404V29.1861Z" fill="black"/>
<path d="M14.5344 39.8955H17.7256V35.014L22.567 39.8955H25.7583V37.9848L22.3154 34.5374H25.7583V25.9971H14.5344V39.8955ZM22.567 29.1861V31.3529H17.7256V29.1861H22.567Z" fill="black"/>
<path d="M28.9294 39.8955H32.1184V37.2187H36.9598V39.8955H40.1511V25.9971H28.9294V39.8955ZM36.9598 29.1861V34.5374H32.1184V29.1861H36.9598Z" fill="black"/>
<path d="M43.3247 39.9133H46.5159V25.9971H43.3247V39.9133Z" fill="black"/>
<path d="M49.687 39.8955H52.8782V32.3394L57.7196 37.2187V39.8955H60.9086V25.9971H57.7196V32.2771L52.8782 27.3978V25.9971H49.687V39.8955Z" fill="black"/>
<path d="M64.082 39.8955H75.3036V36.702H67.3846L67.4002 34.5374H72.6313V31.3529H67.271V29.1861H75.3036V25.9971H64.082V39.8955Z" fill="black"/>
<path d="M78.4771 39.8955H81.6683V35.014L86.5097 39.8955H89.6987V37.9848L86.258 34.5374H89.6987V25.9971H78.4771V39.8955ZM86.5097 29.1861V31.3529H81.6683V29.1861H86.5097Z" fill="black"/>
<path d="M92.8721 34.5374H100.902V36.7132L92.8721 36.702V39.8955H104.094V31.3529H96.0611V29.1861H104.094L104.076 25.9971H92.8721V34.5374Z" fill="black"/>
<path d="M43.5652 0.208984H52.0989L56.1965 2.96372V19.9821L51.9452 22.7257H43.6832L46.0349 18.7261H50.8251L52.2369 17.8175V5.09046L50.9097 4.20859H45.9013L43.5652 0.208984Z" fill="white"/>
<path d="M41.3582 11.4529L34.7419 0.208984H39.3272L45.9435 11.4529L39.3094 22.7257H34.7419L41.3582 11.4529Z" fill="white"/>
<path d="M62.7503 11.268L69.2597 0.208984H64.6722L58.165 11.268L64.906 22.7257H69.4935L62.7503 11.268Z" fill="white"/>
<path d="M19.3313 43.6636H18.5586V45.7636H18.0397V43.6636H17.2781V43.2427H19.3313V43.6636Z" fill="white"/>
<path d="M21.0239 44.8416H20.6097V45.7636H20.0908V43.2427H21.0284C21.3246 43.2427 21.5562 43.3095 21.7165 43.4409C21.8791 43.5745 21.9592 43.7616 21.9592 44.0043C21.9592 44.1758 21.9214 44.3205 21.8479 44.4341C21.7722 44.5499 21.6608 44.6412 21.5094 44.7102L22.055 45.7391V45.7636H21.496L21.0239 44.8416ZM20.6097 44.4185H21.0284C21.1598 44.4185 21.26 44.3873 21.3335 44.3205C21.4047 44.2537 21.4404 44.1624 21.4404 44.0466C21.4404 43.9264 21.4047 43.835 21.3379 43.766C21.2711 43.6992 21.1687 43.6636 21.0284 43.6636H20.6097V44.4185Z" fill="white"/>
<path d="M24.3354 44.6679H23.3377V45.3449H24.5069V45.7636H22.8188V43.2427H24.5047V43.6636H23.3377V44.2626H24.3354V44.6679Z" fill="white"/>
<path d="M25.8297 45.7636H25.3108V43.2427H25.8297V45.7636Z" fill="white"/>
<path d="M28.8249 45.7636H28.306L27.295 44.1045V45.7636H26.7761V43.2427H27.295L28.306 44.904V43.2427H28.8249V45.7636Z" fill="white"/>
<path d="M31.1966 45.2447H30.2858L30.1121 45.7636H29.562L30.4996 43.2427H30.9806L31.9248 45.7636H31.3725L31.1966 45.2447ZM30.4261 44.8238H31.0563L30.7401 43.8796L30.4261 44.8238Z" fill="white"/>
<path d="M33.301 43.2427L33.9491 45.071L34.5927 43.2427H35.2741V45.7636H34.7552V45.0732L34.8064 43.884L34.1272 45.7636H33.7687L33.0917 43.8863L33.1429 45.0732V45.7636H32.624V43.2427H33.301Z" fill="white"/>
<path d="M37.7104 44.6679H36.7127V45.3449H37.8819V45.7636H36.1938V43.2427H37.8797V43.6636H36.7127V44.2626H37.7104V44.6679Z" fill="white"/>
<path d="M40.7011 45.7636H40.1823L39.1712 44.1045V45.7636H38.6523V43.2427H39.1712L40.1845 44.904V43.2427H40.7011V45.7636Z" fill="white"/>
<path d="M43.4671 43.6636H42.6943V45.7636H42.1754V43.6636H41.4138V43.2427H43.4671V43.6636Z" fill="white"/>
<path d="M46.2486 44.5588C46.2486 44.8082 46.2041 45.0264 46.1172 45.2135C46.0281 45.4006 45.9034 45.5431 45.7408 45.6455C45.576 45.748 45.389 45.797 45.1774 45.797C44.9703 45.797 44.7833 45.748 44.6185 45.6478C44.4559 45.5476 44.329 45.4028 44.2377 45.2157C44.1486 45.0309 44.104 44.8171 44.1018 44.5744V44.4497C44.1018 44.2003 44.1463 43.982 44.2354 43.7927C44.3245 43.6057 44.4514 43.4587 44.614 43.3585C44.7788 43.2582 44.9659 43.207 45.1752 43.207C45.3845 43.207 45.5716 43.2582 45.7342 43.3585C45.899 43.4587 46.0237 43.6057 46.1127 43.7927C46.204 43.982 46.2486 44.2002 46.2486 44.4474V44.5588ZM45.723 44.4452C45.723 44.1802 45.674 43.9798 45.5805 43.8417C45.4847 43.7036 45.3511 43.6368 45.1752 43.6368C45.0015 43.6368 44.8657 43.7036 44.7721 43.8395C44.6764 43.9753 44.6296 44.1735 44.6274 44.4363V44.5588C44.6274 44.8171 44.6741 45.0175 44.7699 45.1601C44.8657 45.3026 45.0015 45.3716 45.1774 45.3716C45.3534 45.3716 45.487 45.3048 45.5805 45.1667C45.674 45.0309 45.7208 44.8305 45.723 44.5677V44.4452Z" fill="white"/>
<path d="M48.4932 44.8773V45.7636H47.9744V43.2427H48.9565C49.1457 43.2427 49.3128 43.2761 49.4553 43.3473C49.6 43.4164 49.7092 43.5144 49.7871 43.6413C49.865 43.7682 49.9029 43.9152 49.9029 44.0778C49.9029 44.325 49.8183 44.5187 49.649 44.6635C49.482 44.806 49.246 44.8773 48.9475 44.8773H48.4932ZM48.4932 44.4541H48.9565C49.0945 44.4541 49.1992 44.423 49.2704 44.3584C49.3439 44.2938 49.3796 44.2003 49.3796 44.0822C49.3796 43.9575 49.3417 43.8573 49.2704 43.7816C49.197 43.7059 49.0967 43.6658 48.9676 43.6636H48.4932V44.4541Z" fill="white"/>
<path d="M52.2412 44.6679H51.2435V45.3449H52.4149V45.7636H50.7246V43.2427H52.4104V43.6636H51.2435V44.2626H52.2412V44.6679Z" fill="white"/>
<path d="M54.1164 44.8416H53.7022V45.7636H53.1833V43.2427H54.1187C54.4171 43.2427 54.6465 43.3095 54.809 43.4409C54.9694 43.5745 55.0495 43.7616 55.0495 44.0043C55.0495 44.1758 55.0139 44.3205 54.9382 44.4341C54.8647 44.5499 54.7534 44.6412 54.6019 44.7102L55.1475 45.7391V45.7636H54.5886L54.1164 44.8416ZM53.7022 44.4185H54.1209C54.2523 44.4185 54.3525 44.3873 54.4238 44.3205C54.495 44.2537 54.5329 44.1624 54.5329 44.0466C54.5329 43.9264 54.4973 43.835 54.4304 43.766C54.3636 43.6992 54.259 43.6636 54.1187 43.6636H53.7022V44.4185Z" fill="white"/>
<path d="M57.2185 45.1022C57.2185 45.0042 57.1829 44.9285 57.1139 44.875C57.0448 44.8238 56.9201 44.7681 56.7397 44.7102C56.5594 44.6523 56.4168 44.5944 56.3122 44.5365C56.0271 44.3829 55.8846 44.1735 55.8846 43.9107C55.8846 43.7749 55.9224 43.6546 55.9982 43.5478C56.0739 43.4409 56.1852 43.3562 56.33 43.2961C56.4725 43.236 56.6328 43.207 56.8132 43.207C56.9936 43.207 57.1539 43.2404 57.2942 43.305C57.4345 43.3696 57.5437 43.4631 57.6216 43.5812C57.6996 43.6992 57.7374 43.835 57.7374 43.9865H57.2208C57.2208 43.8707 57.1829 43.7816 57.1094 43.717C57.0381 43.6524 56.9357 43.6212 56.8043 43.6212C56.6774 43.6212 56.5794 43.648 56.5081 43.7014C56.4369 43.7549 56.4035 43.8261 56.4035 43.9152C56.4035 43.9954 56.4435 44.0644 56.5259 44.1201C56.6083 44.1758 56.7308 44.227 56.8912 44.276C57.1851 44.365 57.4011 44.4742 57.537 44.6078C57.6706 44.7392 57.7374 44.9017 57.7374 45.0977C57.7374 45.316 57.6572 45.4874 57.4902 45.6121C57.3254 45.7368 57.105 45.797 56.8244 45.797C56.6306 45.797 56.4547 45.7636 56.2943 45.6923C56.1362 45.621 56.0137 45.5231 55.9313 45.4006C55.8467 45.2759 55.8066 45.1333 55.8066 44.9708H56.3255C56.3255 45.2491 56.4925 45.3872 56.8244 45.3872C56.9468 45.3872 57.0448 45.3627 57.1139 45.3115C57.1829 45.2625 57.2185 45.1912 57.2185 45.1022Z" fill="white"/>
<path d="M60.6236 44.5588C60.6236 44.8082 60.5791 45.0264 60.4922 45.2135C60.4031 45.4006 60.2784 45.5431 60.1158 45.6455C59.9511 45.748 59.764 45.797 59.5547 45.797C59.3453 45.797 59.1583 45.748 58.9957 45.6478C58.8309 45.5476 58.704 45.4028 58.6149 45.2157C58.5236 45.0309 58.479 44.8171 58.4768 44.5744V44.4497C58.4768 44.2003 58.5213 43.982 58.6104 43.7927C58.7017 43.6057 58.8264 43.4587 58.9912 43.3585C59.1538 43.2582 59.3409 43.207 59.5502 43.207C59.7618 43.207 59.9466 43.2582 60.1092 43.3585C60.274 43.4587 60.3987 43.6057 60.49 43.7927C60.5791 43.982 60.6236 44.2002 60.6236 44.4474V44.5588ZM60.098 44.4452C60.098 44.1802 60.049 43.9798 59.9555 43.8417C59.8597 43.7036 59.7261 43.6368 59.5502 43.6368C59.3765 43.6368 59.2407 43.7036 59.1471 43.8395C59.0514 43.9753 59.0046 44.1735 59.0024 44.4363V44.5588C59.0024 44.8171 59.0514 45.0175 59.1449 45.1601C59.2407 45.3026 59.3765 45.3716 59.5547 45.3716C59.7284 45.3716 59.862 45.3048 59.9555 45.1667C60.049 45.0309 60.0958 44.8305 60.098 44.5677V44.4452Z" fill="white"/>
<path d="M63.5163 45.7636H62.9952L61.9864 44.1045V45.7636H61.4675V43.2427H61.9864L62.9974 44.904V43.2427H63.5163V45.7636Z" fill="white"/>
<path d="M65.888 45.2447H64.9772L64.8035 45.7636H64.2534L65.191 43.2427H65.672L66.6162 45.7636H66.0639L65.888 45.2447ZM65.1175 44.8238H65.7477L65.4315 43.8796L65.1175 44.8238Z" fill="white"/>
<path d="M67.8343 45.3449H68.9367V45.7636H67.3154V43.2427H67.8343V45.3449Z" fill="white"/>
<path d="M70.2506 45.7636H69.7317V43.2427H70.2506V45.7636Z" fill="white"/>
<path d="M71.7472 45.3449H73.0188V45.7636H71.0991V45.4563L72.344 43.6636H71.1013V43.2427H72.9898V43.5411L71.7472 45.3449Z" fill="white"/>
<path d="M75.2547 45.2447H74.3461L74.1724 45.7636H73.6201L74.5577 43.2427H75.0387L75.9829 45.7636H75.4306L75.2547 45.2447ZM74.4864 44.8238H75.1166L74.7982 43.8796L74.4864 44.8238Z" fill="white"/>
<path d="M76.6821 45.7636V43.2427H77.4571C77.6798 43.2427 77.878 43.2917 78.0517 43.3919C78.2276 43.4921 78.3635 43.6346 78.4615 43.8172C78.5594 44.0021 78.6084 44.2114 78.6084 44.4452V44.561C78.6084 44.7949 78.5617 45.0042 78.4637 45.1868C78.3679 45.3694 78.2321 45.5097 78.0562 45.6099C77.8802 45.7101 77.6843 45.7614 77.4638 45.7636H76.6821ZM77.201 43.6636V45.3449H77.4527C77.6553 45.3449 77.8112 45.2781 77.9181 45.1467C78.025 45.0131 78.0807 44.8238 78.0829 44.5766V44.443C78.0829 44.1891 78.0294 43.9932 77.9225 43.8618C77.8179 43.7304 77.662 43.6636 77.4571 43.6636H77.201Z" fill="white"/>
<path d="M81.5213 44.5588C81.5213 44.8082 81.4768 45.0264 81.3877 45.2135C81.3008 45.4006 81.1761 45.5431 81.0113 45.6455C80.8488 45.748 80.6617 45.797 80.4501 45.797C80.2408 45.797 80.056 45.748 79.8912 45.6478C79.7264 45.5476 79.5994 45.4028 79.5104 45.2157C79.4213 45.0309 79.3745 44.8171 79.3745 44.5744V44.4497C79.3745 44.2003 79.4191 43.982 79.5081 43.7927C79.5972 43.6057 79.7241 43.4587 79.8867 43.3585C80.0515 43.2582 80.2363 43.207 80.4479 43.207C80.6572 43.207 80.8443 43.2582 81.0069 43.3585C81.1694 43.4587 81.2964 43.6057 81.3854 43.7927C81.4745 43.982 81.5213 44.2002 81.5213 44.4474V44.5588ZM80.9935 44.4452C80.9935 44.1802 80.9467 43.9798 80.8532 43.8417C80.7575 43.7036 80.6216 43.6368 80.4479 43.6368C80.272 43.6368 80.1384 43.7036 80.0426 43.8395C79.9491 43.9753 79.9001 44.1735 79.9001 44.4363V44.5588C79.9001 44.8171 79.9468 45.0175 80.0426 45.1601C80.1361 45.3026 80.272 45.3716 80.4501 45.3716C80.6238 45.3716 80.7575 45.3048 80.8532 45.1667C80.9445 45.0309 80.9935 44.8305 80.9935 44.5677V44.4452Z" fill="white"/>
</svg>
