<svg width="167" height="73" viewBox="0 0 167 73" fill="none" xmlns="http://www.w3.org/2000/svg">
<g clip-path="url(#clip0_9398_1758)">
<path d="M0.0958252 46.3811H6.63664V63.5227H11.7303V46.3811H18.0572V41.2768H0.0958252V46.3811Z" fill="#DCDBDE"/>
<path d="M23.1367 63.5228H28.2446V55.7095L35.9937 63.5228H41.1016V60.4645L35.5909 54.9467H41.1016V41.2769H23.1367V63.5228ZM35.9937 46.3812V49.8495H28.2446V46.3812H35.9937Z" fill="#DCDBDE"/>
<path d="M46.1774 63.5228H51.2818V59.2383H59.0309V63.5228H64.1388V41.2769H46.1774V63.5228ZM59.0309 46.3812V54.9467H51.2818V46.3812H59.0309Z" fill="#DCDBDE"/>
<path d="M69.2182 63.5513H74.3261V41.2769H69.2182V63.5513Z" fill="#DCDBDE"/>
<path d="M79.4017 63.5228H84.5096V51.4285L92.2588 59.2383V63.5228H97.3631V41.2769H92.2588V51.3287L84.5096 43.519V41.2769H79.4017V63.5228Z" fill="#DCDBDE"/>
<path d="M102.443 63.5228H120.404V58.4113H107.729L107.754 54.9467H116.127V49.8495H107.547V46.3812H120.404V41.2769H102.443V63.5228Z" fill="#DCDBDE"/>
<path d="M125.483 63.5228H130.591V55.7095L138.34 63.5228H143.445V60.4645L137.938 54.9467H143.445V41.2769H125.483V63.5228ZM138.34 46.3812V49.8495H130.591V46.3812H138.34Z" fill="#DCDBDE"/>
<path d="M148.524 54.9467H161.378V58.4292L148.524 58.4113V63.5228H166.485V49.8495H153.628V46.3812H166.485L166.457 41.2769H148.524V54.9467Z" fill="#DCDBDE"/>
<path d="M69.603 0.000244141H83.2621L89.8207 4.4095V31.6492L83.0161 36.0406H69.7919L73.556 29.6389H81.2232L83.4831 28.1845V7.81357L81.3587 6.40204H73.3422L69.603 0.000244141Z" fill="#EEAF15"/>
<path d="M66.0705 17.9973L55.4805 0.000244141H62.8197L73.4098 17.9973L62.7912 36.0406H55.4805L66.0705 17.9973Z" fill="#EEAF15"/>
<path d="M100.311 17.7014L110.73 0.000244141H103.387L92.9716 17.7014L103.761 36.0406H111.104L100.311 17.7014Z" fill="#EEAF15"/>
<path d="M30.8145 69.5539H29.5776V72.9152H28.7471V69.5539H27.5281V68.8803H30.8145V69.5539Z" fill="#EEAF15"/>
<path d="M33.5233 71.4395H32.8603V72.9152H32.0298V68.8803H33.5304C34.0045 68.8803 34.3752 68.9872 34.6319 69.1975C34.8921 69.4114 35.0204 69.7108 35.0204 70.0993C35.0204 70.3738 34.9598 70.6055 34.8422 70.7872C34.721 70.9726 34.5427 71.1187 34.3004 71.2292L35.1737 72.876V72.9152H34.279L33.5233 71.4395ZM32.8603 70.7623H33.5304C33.7407 70.7623 33.9011 70.7124 34.0188 70.6055C34.1328 70.4985 34.1899 70.3524 34.1899 70.167C34.1899 69.9746 34.1328 69.8284 34.0259 69.7179C33.919 69.611 33.755 69.5539 33.5304 69.5539H32.8603V70.7623Z" fill="#EEAF15"/>
<path d="M38.8237 71.1615H37.2268V72.2451H39.0982V72.9152H36.3963V68.8803H39.0946V69.5539H37.2268V70.5128H38.8237V71.1615Z" fill="#EEAF15"/>
<path d="M41.2154 72.9152H40.3849V68.8803H41.2154V72.9152Z" fill="#EEAF15"/>
<path d="M46.0097 72.9152H45.1791L43.5609 70.2597V72.9152H42.7303V68.8803H43.5609L45.1791 71.5394V68.8803H46.0097V72.9152Z" fill="#EEAF15"/>
<path d="M49.8058 72.0847H48.3479L48.0699 72.9152H47.1895L48.6901 68.8803H49.46L50.9714 72.9152H50.0874L49.8058 72.0847ZM48.5725 71.411H49.5812L49.0751 69.8997L48.5725 71.411Z" fill="#EEAF15"/>
<path d="M53.1741 68.8803L54.2114 71.8067L55.2415 68.8803H56.3322V72.9152H55.5017V71.8103L55.5837 69.9068L54.4965 72.9152H53.9227L52.8391 69.9104L52.921 71.8103V72.9152H52.0905V68.8803H53.1741Z" fill="#EEAF15"/>
<path d="M60.2322 71.1615H58.6353V72.2451H60.5067V72.9152H57.8048V68.8803H60.5031V69.5539H58.6353V70.5128H60.2322V71.1615Z" fill="#EEAF15"/>
<path d="M65.0192 72.9152H64.1887L62.5704 70.2597V72.9152H61.7399V68.8803H62.5704L64.1922 71.5394V68.8803H65.0192V72.9152Z" fill="#EEAF15"/>
<path d="M69.446 69.5539H68.2091V72.9152H67.3786V69.5539H66.1595V68.8803H69.446V69.5539Z" fill="#EEAF15"/>
<path d="M73.8981 70.9868C73.8981 71.3861 73.8268 71.7354 73.6878 72.0348C73.5452 72.3342 73.3456 72.5623 73.0854 72.7263C72.8216 72.8903 72.5222 72.9687 72.1836 72.9687C71.8521 72.9687 71.5526 72.8903 71.2889 72.7299C71.0287 72.5695 70.8255 72.3378 70.6793 72.0384C70.5368 71.7425 70.4655 71.4003 70.4619 71.0118V70.8122C70.4619 70.413 70.5332 70.0636 70.6758 69.7607C70.8184 69.4612 71.0215 69.226 71.2817 69.0656C71.5455 68.9052 71.8449 68.8232 72.18 68.8232C72.515 68.8232 72.8145 68.9052 73.0747 69.0656C73.3384 69.226 73.5381 69.4612 73.6806 69.7607C73.8268 70.0636 73.8981 70.413 73.8981 70.8086V70.9868ZM73.0569 70.8051C73.0569 70.3809 72.9784 70.0601 72.8287 69.8391C72.6755 69.6181 72.4616 69.5111 72.18 69.5111C71.902 69.5111 71.6845 69.6181 71.5348 69.8355C71.3815 70.0529 71.3067 70.3702 71.3031 70.7908V70.9868C71.3031 71.4003 71.378 71.7211 71.5313 71.9492C71.6845 72.1774 71.902 72.2879 72.1836 72.2879C72.4651 72.2879 72.679 72.1809 72.8287 71.9599C72.9784 71.7425 73.0533 71.4217 73.0569 71.0011V70.8051Z" fill="#EEAF15"/>
<path d="M77.4913 71.4966V72.9152H76.6608V68.8803H78.2327C78.5357 68.8803 78.803 68.9337 79.0311 69.0478C79.2628 69.1583 79.4375 69.3151 79.5622 69.5183C79.687 69.7215 79.7476 69.9567 79.7476 70.2169C79.7476 70.6126 79.6122 70.9227 79.3413 71.1544C79.0739 71.3825 78.6961 71.4966 78.2184 71.4966H77.4913ZM77.4913 70.8193H78.2327C78.4537 70.8193 78.6212 70.7694 78.7353 70.6661C78.8529 70.5627 78.9099 70.413 78.9099 70.2241C78.9099 70.0244 78.8493 69.8641 78.7353 69.7429C78.6177 69.6217 78.4573 69.5575 78.2505 69.5539H77.4913V70.8193Z" fill="#EEAF15"/>
<path d="M83.4903 71.1615H81.8934V72.2451H83.7683V72.9152H81.0629V68.8803H83.7612V69.5539H81.8934V70.5128H83.4903V71.1615Z" fill="#EEAF15"/>
<path d="M86.4914 71.4395H85.8284V72.9152H84.9979V68.8803H86.495C86.9726 68.8803 87.3398 68.9872 87.6 69.1975C87.8566 69.4114 87.985 69.7108 87.985 70.0993C87.985 70.3738 87.9279 70.6055 87.8067 70.7872C87.6891 70.9726 87.5109 71.1187 87.2685 71.2292L88.1418 72.876V72.9152H87.2471L86.4914 71.4395ZM85.8284 70.7623H86.4986C86.7089 70.7623 86.8693 70.7124 86.9833 70.6055C87.0974 70.4985 87.158 70.3524 87.158 70.167C87.158 69.9746 87.101 69.8284 86.994 69.7179C86.8871 69.611 86.7196 69.5539 86.495 69.5539H85.8284V70.7623Z" fill="#EEAF15"/>
<path d="M91.4567 71.8566C91.4567 71.6997 91.3996 71.5785 91.2891 71.493C91.1786 71.411 90.979 71.3219 90.6903 71.2292C90.4016 71.1365 90.1734 71.0439 90.0059 70.9512C89.5497 70.7052 89.3215 70.3702 89.3215 69.9496C89.3215 69.7321 89.3821 69.5397 89.5033 69.3686C89.6245 69.1975 89.8027 69.062 90.0344 68.9658C90.2626 68.8695 90.5192 68.8232 90.8079 68.8232C91.0966 68.8232 91.3533 68.8767 91.5778 68.98C91.8024 69.0834 91.9771 69.2331 92.1018 69.422C92.2266 69.6109 92.2872 69.8284 92.2872 70.0708H91.4602C91.4602 69.8854 91.3996 69.7428 91.282 69.6395C91.1679 69.5361 91.004 69.4862 90.7937 69.4862C90.5905 69.4862 90.4336 69.529 90.3196 69.6145C90.2055 69.7001 90.1521 69.8141 90.1521 69.9567C90.1521 70.085 90.2162 70.1955 90.3481 70.2846C90.48 70.3737 90.676 70.4557 90.9327 70.5342C91.4032 70.6767 91.7489 70.8514 91.9664 71.0653C92.1802 71.2756 92.2872 71.5358 92.2872 71.8494C92.2872 72.1988 92.1589 72.4732 91.8915 72.6728C91.6278 72.8724 91.2749 72.9687 90.8257 72.9687C90.5156 72.9687 90.234 72.9152 89.9774 72.8012C89.7243 72.6871 89.5283 72.5303 89.3964 72.3342C89.2609 72.1346 89.1968 71.9065 89.1968 71.6463H90.0273C90.0273 72.0918 90.2946 72.3128 90.8257 72.3128C91.0218 72.3128 91.1786 72.2736 91.2891 72.1916C91.3996 72.1132 91.4567 71.9991 91.4567 71.8566Z" fill="#EEAF15"/>
<path d="M96.9068 70.9868C96.9068 71.3861 96.8355 71.7354 96.6965 72.0348C96.5539 72.3342 96.3543 72.5623 96.0941 72.7263C95.8303 72.8903 95.5309 72.9687 95.1958 72.9687C94.8608 72.9687 94.5614 72.8903 94.3012 72.7299C94.0374 72.5695 93.8342 72.3378 93.6916 72.0384C93.5455 71.7425 93.4742 71.4003 93.4706 71.0118V70.8122C93.4706 70.413 93.5419 70.0636 93.6845 69.7607C93.8307 69.4612 94.0303 69.226 94.294 69.0656C94.5542 68.9052 94.8537 68.8232 95.1887 68.8232C95.5273 68.8232 95.8232 68.9052 96.0834 69.0656C96.3472 69.226 96.5468 69.4612 96.6929 69.7607C96.8355 70.0636 96.9068 70.413 96.9068 70.8086V70.9868ZM96.0656 70.8051C96.0656 70.3809 95.9872 70.0601 95.8375 69.8391C95.6842 69.6181 95.4703 69.5111 95.1887 69.5111C94.9107 69.5111 94.6933 69.6181 94.5436 69.8355C94.3903 70.0529 94.3154 70.3702 94.3119 70.7908V70.9868C94.3119 71.4003 94.3903 71.7211 94.54 71.9492C94.6933 72.1774 94.9107 72.2879 95.1958 72.2879C95.4739 72.2879 95.6878 72.1809 95.8375 71.9599C95.9872 71.7425 96.062 71.4217 96.0656 71.0011V70.8051Z" fill="#EEAF15"/>
<path d="M101.537 72.9152H100.703L99.0881 70.2597V72.9152H98.2576V68.8803H99.0881L100.706 71.5394V68.8803H101.537V72.9152Z" fill="#EEAF15"/>
<path d="M105.333 72.0847H103.876L103.598 72.9152H102.717L104.218 68.8803H104.988L106.499 72.9152H105.615L105.333 72.0847ZM104.1 71.411H105.109L104.603 69.8997L104.1 71.411Z" fill="#EEAF15"/>
<path d="M108.449 72.2451H110.213V72.9152H107.618V68.8803H108.449V72.2451Z" fill="#EEAF15"/>
<path d="M112.316 72.9152H111.486V68.8803H112.316V72.9152Z" fill="#EEAF15"/>
<path d="M114.711 72.2451H116.747V72.9152H113.674V72.4233L115.667 69.5539H113.678V68.8803H116.7V69.3579L114.711 72.2451Z" fill="#EEAF15"/>
<path d="M120.325 72.0847H118.871L118.593 72.9152H117.709L119.21 68.8803H119.98L121.491 72.9152H120.607L120.325 72.0847ZM119.096 71.411H120.104L119.595 69.8997L119.096 71.411Z" fill="#EEAF15"/>
<path d="M122.61 72.9152V68.8803H123.851C124.207 68.8803 124.524 68.9587 124.802 69.1191C125.084 69.2795 125.301 69.5076 125.458 69.7999C125.615 70.0957 125.693 70.4308 125.693 70.8051V70.9904C125.693 71.3647 125.619 71.6998 125.462 71.992C125.309 72.2843 125.091 72.5089 124.81 72.6693C124.528 72.8297 124.214 72.9117 123.861 72.9152H122.61ZM123.441 69.5539V72.2451H123.844C124.168 72.2451 124.417 72.1382 124.589 71.9279C124.76 71.714 124.849 71.411 124.852 71.0154V70.8015C124.852 70.3952 124.767 70.0815 124.596 69.8712C124.428 69.6609 124.179 69.5539 123.851 69.5539H123.441Z" fill="#EEAF15"/>
<path d="M130.356 70.9868C130.356 71.3861 130.285 71.7354 130.142 72.0348C130.003 72.3342 129.803 72.5623 129.54 72.7263C129.279 72.8903 128.98 72.9687 128.641 72.9687C128.306 72.9687 128.01 72.8903 127.747 72.7299C127.483 72.5695 127.28 72.3378 127.137 72.0384C126.995 71.7425 126.92 71.4003 126.92 71.0118V70.8122C126.92 70.413 126.991 70.0636 127.134 69.7607C127.276 69.4612 127.479 69.226 127.74 69.0656C128.003 68.9052 128.299 68.8232 128.638 68.8232C128.973 68.8232 129.272 68.9052 129.532 69.0656C129.793 69.226 129.996 69.4612 130.138 69.7607C130.281 70.0636 130.356 70.413 130.356 70.8086V70.9868ZM129.511 70.8051C129.511 70.3809 129.436 70.0601 129.286 69.8391C129.133 69.6181 128.916 69.5111 128.638 69.5111C128.356 69.5111 128.142 69.6181 127.989 69.8355C127.839 70.0529 127.761 70.3702 127.761 70.7908V70.9868C127.761 71.4003 127.836 71.7211 127.989 71.9492C128.139 72.1774 128.356 72.2879 128.641 72.2879C128.919 72.2879 129.133 72.1809 129.286 71.9599C129.433 71.7425 129.511 71.4217 129.511 71.0011V70.8051Z" fill="#EEAF15"/>
</g>
<defs>
<clipPath id="clip0_9398_1758">
<rect width="166.581" height="72.9683" fill="white"/>
</clipPath>
</defs>
</svg>
