<svg width="167" height="74" viewBox="0 0 167 74" fill="none" xmlns="http://www.w3.org/2000/svg">
<g clip-path="url(#clip0_9398_1759)">
<path d="M0.0958099 47.2362H6.63662V64.3777H11.7303V47.2362H18.0572V42.1318H0.0958099V47.2362Z" fill="#DCDBDE"/>
<path d="M23.1366 64.3778H28.2445V56.5645L35.9937 64.3778H41.1016V61.3195L35.5909 55.8017H41.1016V42.1319H23.1366V64.3778ZM35.9937 47.2362V50.7045H28.2445V47.2362H35.9937Z" fill="#DCDBDE"/>
<path d="M46.1774 64.3778H51.2817V60.0933H59.0309V64.3778H64.1388V42.1319H46.1774V64.3778ZM59.0309 47.2362V55.8017H51.2817V47.2362H59.0309Z" fill="#DCDBDE"/>
<path d="M69.2182 64.4063H74.3261V42.1319H69.2182V64.4063Z" fill="#DCDBDE"/>
<path d="M79.4017 64.3778H84.5096V52.2835L92.2588 60.0933V64.3778H97.3631V42.1319H92.2588V52.1837L84.5096 44.3739V42.1319H79.4017V64.3778Z" fill="#DCDBDE"/>
<path d="M102.442 64.3778H120.404V59.2663H107.729L107.754 55.8017H116.126V50.7045H107.547V47.2362H120.404V42.1319H102.442V64.3778Z" fill="#DCDBDE"/>
<path d="M125.483 64.3778H130.591V56.5645L138.34 64.3778H143.445V61.3195L137.938 55.8017H143.445V42.1319H125.483V64.3778ZM138.34 47.2362V50.7045H130.591V47.2362H138.34Z" fill="#DCDBDE"/>
<path d="M148.524 55.8017H161.378V59.2841L148.524 59.2663V64.3778H166.485V50.7045H153.628V47.2362H166.485L166.457 42.1319H148.524V55.8017Z" fill="#DCDBDE"/>
<path d="M69.603 0.855225H83.2621L89.8207 5.26448V32.5042L83.0161 36.8956H69.7919L73.556 30.4938H81.2232L83.4831 29.0395V8.66855L81.3586 7.25702H73.3421L69.603 0.855225Z" fill="#EEAF15"/>
<path d="M66.0705 18.8523L55.4805 0.855225H62.8197L73.4098 18.8523L62.7912 36.8956H55.4805L66.0705 18.8523Z" fill="#EEAF15"/>
<path d="M100.311 18.5564L110.73 0.855225H103.387L92.9716 18.5564L103.761 36.8956H111.104L100.311 18.5564Z" fill="#EEAF15"/>
<path d="M30.8145 70.4089H29.5776V73.7702H28.7471V70.4089H27.5281V69.7352H30.8145V70.4089Z" fill="#EEAF15"/>
<path d="M33.5233 72.2945H32.8603V73.7702H32.0298V69.7352H33.5304C34.0045 69.7352 34.3752 69.8422 34.6319 70.0525C34.8921 70.2663 35.0204 70.5658 35.0204 70.9543C35.0204 71.2287 34.9598 71.4604 34.8422 71.6422C34.721 71.8276 34.5427 71.9737 34.3004 72.0842L35.1737 73.731V73.7702H34.279L33.5233 72.2945ZM32.8603 71.6173H33.5304C33.7407 71.6173 33.9011 71.5674 34.0188 71.4604C34.1328 71.3535 34.1899 71.2074 34.1899 71.022C34.1899 70.8295 34.1328 70.6834 34.0259 70.5729C33.919 70.4659 33.755 70.4089 33.5304 70.4089H32.8603V71.6173Z" fill="#EEAF15"/>
<path d="M38.8237 72.0165H37.2268V73.1001H39.0982V73.7702H36.3963V69.7352H39.0946V70.4089H37.2268V71.3678H38.8237V72.0165Z" fill="#EEAF15"/>
<path d="M41.2154 73.7702H40.3849V69.7352H41.2154V73.7702Z" fill="#EEAF15"/>
<path d="M46.0096 73.7702H45.1791L43.5608 71.1147V73.7702H42.7303V69.7352H43.5608L45.1791 72.3943V69.7352H46.0096V73.7702Z" fill="#EEAF15"/>
<path d="M49.8058 72.9397H48.3479L48.0699 73.7702H47.1894L48.6901 69.7352H49.46L50.9713 73.7702H50.0874L49.8058 72.9397ZM48.5725 72.266H49.5812L49.075 70.7547L48.5725 72.266Z" fill="#EEAF15"/>
<path d="M53.1741 69.7352L54.2114 72.6617L55.2415 69.7352H56.3322V73.7702H55.5017V72.6652L55.5837 70.7618L54.4965 73.7702H53.9227L52.8391 70.7654L52.921 72.6652V73.7702H52.0905V69.7352H53.1741Z" fill="#EEAF15"/>
<path d="M60.2322 72.0165H58.6353V73.1001H60.5067V73.7702H57.8048V69.7352H60.5031V70.4089H58.6353V71.3678H60.2322V72.0165Z" fill="#EEAF15"/>
<path d="M65.0192 73.7702H64.1887L62.5704 71.1147V73.7702H61.7399V69.7352H62.5704L64.1922 72.3943V69.7352H65.0192V73.7702Z" fill="#EEAF15"/>
<path d="M69.446 70.4089H68.2091V73.7702H67.3786V70.4089H66.1595V69.7352H69.446V70.4089Z" fill="#EEAF15"/>
<path d="M73.8981 71.8418C73.8981 72.241 73.8268 72.5903 73.6878 72.8898C73.5452 73.1892 73.3456 73.4173 73.0854 73.5813C72.8216 73.7452 72.5222 73.8236 72.1836 73.8236C71.8521 73.8236 71.5527 73.7452 71.2889 73.5848C71.0287 73.4244 70.8255 73.1927 70.6794 72.8933C70.5368 72.5975 70.4655 72.2553 70.4619 71.8667V71.6671C70.4619 71.2679 70.5332 70.9186 70.6758 70.6156C70.8184 70.3162 71.0216 70.0809 71.2818 69.9205C71.5455 69.7601 71.8449 69.6782 72.18 69.6782C72.5151 69.6782 72.8145 69.7601 73.0747 69.9205C73.3385 70.0809 73.5381 70.3162 73.6806 70.6156C73.8268 70.9186 73.8981 71.2679 73.8981 71.6636V71.8418ZM73.0569 71.66C73.0569 71.2358 72.9784 70.915 72.8287 70.694C72.6755 70.473 72.4616 70.3661 72.18 70.3661C71.902 70.3661 71.6845 70.473 71.5348 70.6905C71.3816 70.9079 71.3067 71.2251 71.3031 71.6458V71.8418C71.3031 72.2553 71.378 72.5761 71.5313 72.8042C71.6845 73.0323 71.902 73.1428 72.1836 73.1428C72.4652 73.1428 72.679 73.0359 72.8287 72.8149C72.9784 72.5975 73.0533 72.2767 73.0569 71.8561V71.66Z" fill="#EEAF15"/>
<path d="M77.4913 72.3516V73.7702H76.6608V69.7352H78.2327C78.5357 69.7352 78.803 69.7887 79.0311 69.9028C79.2628 70.0133 79.4375 70.1701 79.5622 70.3733C79.687 70.5764 79.7476 70.8117 79.7476 71.0719C79.7476 71.4676 79.6122 71.7777 79.3413 72.0094C79.0739 72.2375 78.6961 72.3516 78.2184 72.3516H77.4913ZM77.4913 71.6743H78.2327C78.4537 71.6743 78.6212 71.6244 78.7353 71.521C78.8529 71.4177 78.9099 71.268 78.9099 71.079C78.9099 70.8794 78.8493 70.719 78.7353 70.5978C78.6177 70.4766 78.4573 70.4125 78.2505 70.4089H77.4913V71.6743Z" fill="#EEAF15"/>
<path d="M83.4902 72.0165H81.8933V73.1001H83.7683V73.7702H81.0628V69.7352H83.7611V70.4089H81.8933V71.3678H83.4902V72.0165Z" fill="#EEAF15"/>
<path d="M86.4914 72.2945H85.8284V73.7702H84.9979V69.7352H86.495C86.9726 69.7352 87.3398 69.8422 87.6 70.0525C87.8566 70.2663 87.9849 70.5658 87.9849 70.9543C87.9849 71.2287 87.9279 71.4604 87.8067 71.6422C87.6891 71.8276 87.5108 71.9737 87.2685 72.0842L88.1418 73.731V73.7702H87.2471L86.4914 72.2945ZM85.8284 71.6173H86.4985C86.7088 71.6173 86.8692 71.5674 86.9833 71.4604C87.0974 71.3535 87.158 71.2074 87.158 71.022C87.158 70.8295 87.1009 70.6834 86.994 70.5729C86.8871 70.4659 86.7195 70.4089 86.495 70.4089H85.8284V71.6173Z" fill="#EEAF15"/>
<path d="M91.4567 72.7115C91.4567 72.5547 91.3996 72.4335 91.2891 72.348C91.1786 72.266 90.979 72.1769 90.6903 72.0842C90.4016 71.9915 90.1734 71.8988 90.0059 71.8062C89.5497 71.5602 89.3215 71.2251 89.3215 70.8045C89.3215 70.5871 89.3821 70.3946 89.5033 70.2235C89.6245 70.0524 89.8027 69.917 90.0344 69.8207C90.2626 69.7245 90.5192 69.6782 90.8079 69.6782C91.0966 69.6782 91.3533 69.7316 91.5778 69.835C91.8024 69.9384 91.9771 70.0881 92.1018 70.277C92.2266 70.4659 92.2872 70.6833 92.2872 70.9257H91.4602C91.4602 70.7404 91.3996 70.5978 91.282 70.4944C91.1679 70.3911 91.004 70.3412 90.7937 70.3412C90.5905 70.3412 90.4336 70.3839 90.3196 70.4695C90.2055 70.555 90.1521 70.6691 90.1521 70.8117C90.1521 70.94 90.2162 71.0505 90.3481 71.1396C90.48 71.2287 90.676 71.3107 90.9327 71.3891C91.4032 71.5317 91.7489 71.7063 91.9664 71.9202C92.1802 72.1305 92.2872 72.3907 92.2872 72.7044C92.2872 73.0537 92.1589 73.3282 91.8915 73.5278C91.6278 73.7274 91.2749 73.8236 90.8257 73.8236C90.5156 73.8236 90.234 73.7702 89.9774 73.6561C89.7243 73.5421 89.5283 73.3852 89.3964 73.1892C89.2609 72.9896 89.1968 72.7614 89.1968 72.5012H90.0273C90.0273 72.9468 90.2946 73.1678 90.8257 73.1678C91.0218 73.1678 91.1786 73.1286 91.2891 73.0466C91.3996 72.9682 91.4567 72.8541 91.4567 72.7115Z" fill="#EEAF15"/>
<path d="M96.9068 71.8418C96.9068 72.241 96.8355 72.5903 96.6965 72.8898C96.5539 73.1892 96.3543 73.4173 96.0941 73.5813C95.8303 73.7452 95.5309 73.8236 95.1958 73.8236C94.8608 73.8236 94.5614 73.7452 94.3012 73.5848C94.0374 73.4244 93.8342 73.1927 93.6916 72.8933C93.5455 72.5975 93.4742 72.2553 93.4706 71.8667V71.6671C93.4706 71.2679 93.5419 70.9186 93.6845 70.6156C93.8307 70.3162 94.0303 70.0809 94.294 69.9205C94.5542 69.7601 94.8537 69.6782 95.1887 69.6782C95.5273 69.6782 95.8232 69.7601 96.0834 69.9205C96.3472 70.0809 96.5468 70.3162 96.6929 70.6156C96.8355 70.9186 96.9068 71.2679 96.9068 71.6636V71.8418ZM96.0656 71.66C96.0656 71.2358 95.9872 70.915 95.8375 70.694C95.6842 70.473 95.4703 70.3661 95.1887 70.3661C94.9107 70.3661 94.6933 70.473 94.5436 70.6905C94.3903 70.9079 94.3154 71.2251 94.3119 71.6458V71.8418C94.3119 72.2553 94.3903 72.5761 94.54 72.8042C94.6933 73.0323 94.9107 73.1428 95.1958 73.1428C95.4739 73.1428 95.6878 73.0359 95.8375 72.8149C95.9872 72.5975 96.062 72.2767 96.0656 71.8561V71.66Z" fill="#EEAF15"/>
<path d="M101.537 73.7702H100.703L99.0881 71.1147V73.7702H98.2576V69.7352H99.0881L100.706 72.3943V69.7352H101.537V73.7702Z" fill="#EEAF15"/>
<path d="M105.333 72.9397H103.876L103.598 73.7702H102.717L104.218 69.7352H104.988L106.499 73.7702H105.615L105.333 72.9397ZM104.1 72.266H105.109L104.603 70.7547L104.1 72.266Z" fill="#EEAF15"/>
<path d="M108.449 73.1001H110.213V73.7702H107.618V69.7352H108.449V73.1001Z" fill="#EEAF15"/>
<path d="M112.316 73.7702H111.486V69.7352H112.316V73.7702Z" fill="#EEAF15"/>
<path d="M114.711 73.1001H116.747V73.7702H113.674V73.2783L115.667 70.4089H113.678V69.7352H116.7V70.2129L114.711 73.1001Z" fill="#EEAF15"/>
<path d="M120.325 72.9397H118.871L118.593 73.7702H117.709L119.21 69.7352H119.98L121.491 73.7702H120.607L120.325 72.9397ZM119.096 72.266H120.104L119.595 70.7547L119.096 72.266Z" fill="#EEAF15"/>
<path d="M122.61 73.7702V69.7352H123.851C124.207 69.7352 124.524 69.8136 124.802 69.974C125.084 70.1345 125.301 70.3626 125.458 70.6549C125.615 70.9507 125.693 71.2858 125.693 71.66V71.8454C125.693 72.2197 125.619 72.5547 125.462 72.847C125.309 73.1393 125.091 73.3639 124.809 73.5243C124.528 73.6847 124.214 73.7666 123.861 73.7702H122.61ZM123.441 70.4089V73.1001H123.844C124.168 73.1001 124.417 72.9932 124.588 72.7829C124.76 72.569 124.849 72.266 124.852 71.8703V71.6565C124.852 71.2501 124.767 70.9365 124.596 70.7262C124.428 70.5158 124.179 70.4089 123.851 70.4089H123.441Z" fill="#EEAF15"/>
<path d="M130.356 71.8418C130.356 72.241 130.285 72.5903 130.142 72.8898C130.003 73.1892 129.803 73.4173 129.54 73.5813C129.279 73.7452 128.98 73.8236 128.641 73.8236C128.306 73.8236 128.01 73.7452 127.747 73.5848C127.483 73.4244 127.28 73.1927 127.137 72.8933C126.995 72.5975 126.92 72.2553 126.92 71.8667V71.6671C126.92 71.2679 126.991 70.9186 127.134 70.6156C127.276 70.3162 127.479 70.0809 127.739 69.9205C128.003 69.7601 128.299 69.6782 128.638 69.6782C128.973 69.6782 129.272 69.7601 129.532 69.9205C129.793 70.0809 129.996 70.3162 130.138 70.6156C130.281 70.9186 130.356 71.2679 130.356 71.6636V71.8418ZM129.511 71.66C129.511 71.2358 129.436 70.915 129.286 70.694C129.133 70.473 128.916 70.3661 128.638 70.3661C128.356 70.3661 128.142 70.473 127.989 70.6905C127.839 70.9079 127.761 71.2251 127.761 71.6458V71.8418C127.761 72.2553 127.836 72.5761 127.989 72.8042C128.139 73.0323 128.356 73.1428 128.641 73.1428C128.919 73.1428 129.133 73.0359 129.286 72.8149C129.433 72.5975 129.511 72.2767 129.511 71.8561V71.66Z" fill="#EEAF15"/>
</g>
<defs>
<clipPath id="clip0_9398_1759">
<rect width="166.581" height="72.9683" fill="white" transform="translate(0 0.85498)"/>
</clipPath>
</defs>
</svg>
