<svg width="105" height="46" viewBox="0 0 105 46" fill="none" xmlns="http://www.w3.org/2000/svg">
<g clip-path="url(#clip0_9202_1172)">
<path d="M0.139404 29.1856H4.22586V39.895H7.40818V29.1856H11.361V25.9966H0.139404V29.1856Z" fill="black"/>
<path d="M14.5344 39.895H17.7256V35.0135L22.567 39.895H25.7583V37.9843L22.3154 34.5369H25.7583V25.9966H14.5344V39.895ZM22.567 29.1856V31.3524H17.7256V29.1856H22.567Z" fill="black"/>
<path d="M28.9294 39.895H32.1184V37.2182H36.9598V39.895H40.1511V25.9966H28.9294V39.895ZM36.9598 29.1856V34.5369H32.1184V29.1856H36.9598Z" fill="black"/>
<path d="M43.3245 39.9128H46.5157V25.9966H43.3245V39.9128Z" fill="black"/>
<path d="M49.6868 39.895H52.878V32.3389L57.7194 37.2182V39.895H60.9084V25.9966H57.7194V32.2766L52.878 27.3973V25.9966H49.6868V39.895Z" fill="black"/>
<path d="M64.0818 39.895H75.3034V36.7015H67.3844L67.3999 34.5369H72.631V31.3524H67.2708V29.1856H75.3034V25.9966H64.0818V39.895Z" fill="black"/>
<path d="M78.4768 39.895H81.668V35.0135L86.5094 39.895H89.6984V37.9843L86.2578 34.5369H89.6984V25.9966H78.4768V39.895ZM86.5094 29.1856V31.3524H81.668V29.1856H86.5094Z" fill="black"/>
<path d="M92.8718 34.5369H100.902V36.7127L92.8718 36.7015V39.895H104.093V31.3524H96.0608V29.1856H104.093L104.076 25.9966H92.8718V34.5369Z" fill="black"/>
<path d="M43.5649 0.208496H52.0986L56.1962 2.96324V19.9816L51.945 22.7252H43.683L46.0346 18.7256H50.8248L52.2367 17.817V5.08997L50.9094 4.2081H45.901L43.5649 0.208496Z" fill="#EEAF15"/>
<path d="M41.358 11.4524L34.7417 0.208496H39.327L45.9433 11.4524L39.3092 22.7252H34.7417L41.358 11.4524Z" fill="#EEAF15"/>
<path d="M62.7501 11.2675L69.2595 0.208496H64.6719L58.1648 11.2675L64.9058 22.7252H69.4933L62.7501 11.2675Z" fill="#EEAF15"/>
<path d="M19.3313 43.6631H18.5586V45.7631H18.0397V43.6631H17.2781V43.2422H19.3313V43.6631Z" fill="#EEAF15"/>
<path d="M21.0237 44.8411H20.6095V45.7631H20.0906V43.2422H21.0281C21.3243 43.2422 21.5559 43.309 21.7163 43.4404C21.8788 43.574 21.959 43.7611 21.959 44.0038C21.959 44.1753 21.9211 44.32 21.8476 44.4336C21.7719 44.5494 21.6606 44.6407 21.5091 44.7097L22.0548 45.7386V45.7631H21.4958L21.0237 44.8411ZM20.6095 44.418H21.0281C21.1595 44.418 21.2597 44.3868 21.3332 44.32C21.4045 44.2532 21.4401 44.1619 21.4401 44.0461C21.4401 43.9259 21.4045 43.8346 21.3377 43.7655C21.2709 43.6987 21.1684 43.6631 21.0281 43.6631H20.6095V44.418Z" fill="#EEAF15"/>
<path d="M24.3352 44.6674H23.3375V45.3444H24.5066V45.7631H22.8186V43.2422H24.5044V43.6631H23.3375V44.2621H24.3352V44.6674Z" fill="#EEAF15"/>
<path d="M25.8294 45.7631H25.3105V43.2422H25.8294V45.7631Z" fill="#EEAF15"/>
<path d="M28.8247 45.7631H28.3058L27.2948 44.104V45.7631H26.7759V43.2422H27.2948L28.3058 44.9035V43.2422H28.8247V45.7631Z" fill="#EEAF15"/>
<path d="M31.1964 45.2442H30.2855L30.1118 45.7631H29.5618L30.4993 43.2422H30.9803L31.9246 45.7631H31.3723L31.1964 45.2442ZM30.4258 44.8233H31.0561L30.7398 43.8791L30.4258 44.8233Z" fill="#EEAF15"/>
<path d="M33.3008 43.2422L33.9488 45.0705L34.5924 43.2422H35.2739V45.7631H34.755V45.0727L34.8062 43.8835L34.127 45.7631H33.7684L33.0914 43.8858L33.1427 45.0727V45.7631H32.6238V43.2422H33.3008Z" fill="#EEAF15"/>
<path d="M37.7104 44.6674H36.7127V45.3444H37.8819V45.7631H36.1938V43.2422H37.8797V43.6631H36.7127V44.2621H37.7104V44.6674Z" fill="#EEAF15"/>
<path d="M40.7011 45.7631H40.1823L39.1712 44.104V45.7631H38.6523V43.2422H39.1712L40.1845 44.9035V43.2422H40.7011V45.7631Z" fill="#EEAF15"/>
<path d="M43.4668 43.6631H42.6941V45.7631H42.1752V43.6631H41.4136V43.2422H43.4668V43.6631Z" fill="#EEAF15"/>
<path d="M46.2483 44.5583C46.2483 44.8077 46.2038 45.026 46.117 45.213C46.0279 45.4001 45.9032 45.5426 45.7406 45.6451C45.5758 45.7475 45.3887 45.7965 45.1772 45.7965C44.9701 45.7965 44.783 45.7475 44.6182 45.6473C44.4556 45.5471 44.3287 45.4023 44.2374 45.2153C44.1483 45.0304 44.1038 44.8166 44.1016 44.5739V44.4492C44.1016 44.1998 44.1461 43.9815 44.2352 43.7922C44.3243 43.6052 44.4512 43.4582 44.6138 43.358C44.7786 43.2578 44.9656 43.2065 45.175 43.2065C45.3843 43.2065 45.5714 43.2578 45.7339 43.358C45.8987 43.4582 46.0234 43.6052 46.1125 43.7922C46.2038 43.9815 46.2483 44.1998 46.2483 44.447V44.5583ZM45.7228 44.4447C45.7228 44.1797 45.6738 43.9793 45.5803 43.8412C45.4845 43.7032 45.3509 43.6363 45.175 43.6363C45.0012 43.6363 44.8654 43.7032 44.7719 43.839C44.6761 43.9748 44.6294 44.173 44.6271 44.4358V44.5583C44.6271 44.8166 44.6739 45.0171 44.7696 45.1596C44.8654 45.3021 45.0013 45.3711 45.1772 45.3711C45.3531 45.3711 45.4867 45.3043 45.5803 45.1663C45.6738 45.0304 45.7206 44.83 45.7228 44.5672V44.4447Z" fill="#EEAF15"/>
<path d="M48.4932 44.8768V45.7631H47.9744V43.2422H48.9565C49.1457 43.2422 49.3128 43.2756 49.4553 43.3469C49.6 43.4159 49.7092 43.5139 49.7871 43.6408C49.865 43.7677 49.9029 43.9147 49.9029 44.0773C49.9029 44.3245 49.8183 44.5182 49.649 44.663C49.482 44.8055 49.246 44.8768 48.9475 44.8768H48.4932ZM48.4932 44.4536H48.9565C49.0945 44.4536 49.1992 44.4225 49.2704 44.3579C49.3439 44.2933 49.3796 44.1998 49.3796 44.0817C49.3796 43.957 49.3417 43.8568 49.2704 43.7811C49.197 43.7054 49.0967 43.6653 48.9676 43.6631H48.4932V44.4536Z" fill="#EEAF15"/>
<path d="M52.2412 44.6674H51.2435V45.3444H52.4149V45.7631H50.7246V43.2422H52.4104V43.6631H51.2435V44.2621H52.2412V44.6674Z" fill="#EEAF15"/>
<path d="M54.1162 44.8411H53.702V45.7631H53.1831V43.2422H54.1184C54.4168 43.2422 54.6462 43.309 54.8088 43.4404C54.9691 43.574 55.0493 43.7611 55.0493 44.0038C55.0493 44.1753 55.0137 44.32 54.9379 44.4336C54.8645 44.5494 54.7531 44.6407 54.6017 44.7097L55.1473 45.7386V45.7631H54.5883L54.1162 44.8411ZM53.702 44.418H54.1207C54.252 44.418 54.3523 44.3868 54.4235 44.32C54.4948 44.2532 54.5326 44.1619 54.5326 44.0461C54.5326 43.9259 54.497 43.8346 54.4302 43.7655C54.3634 43.6987 54.2587 43.6631 54.1184 43.6631H53.702V44.418Z" fill="#EEAF15"/>
<path d="M57.2183 45.1017C57.2183 45.0037 57.1827 44.928 57.1136 44.8745C57.0446 44.8233 56.9199 44.7676 56.7395 44.7097C56.5591 44.6518 56.4166 44.5939 56.3119 44.536C56.0269 44.3824 55.8843 44.173 55.8843 43.9103C55.8843 43.7744 55.9222 43.6542 55.9979 43.5473C56.0736 43.4404 56.185 43.3557 56.3297 43.2956C56.4723 43.2355 56.6326 43.2065 56.813 43.2065C56.9934 43.2065 57.1537 43.2399 57.294 43.3045C57.4343 43.3691 57.5434 43.4626 57.6214 43.5807C57.6993 43.6987 57.7372 43.8345 57.7372 43.986H57.2205C57.2205 43.8702 57.1827 43.7811 57.1092 43.7165C57.0379 43.6519 56.9355 43.6208 56.8041 43.6208C56.6771 43.6208 56.5791 43.6475 56.5079 43.7009C56.4366 43.7544 56.4032 43.8256 56.4032 43.9147C56.4032 43.9949 56.4433 44.0639 56.5257 44.1196C56.6081 44.1753 56.7306 44.2265 56.8909 44.2755C57.1849 44.3646 57.4009 44.4737 57.5367 44.6073C57.6704 44.7387 57.7372 44.9013 57.7372 45.0972C57.7372 45.3155 57.657 45.4869 57.49 45.6117C57.3252 45.7364 57.1047 45.7965 56.8241 45.7965C56.6304 45.7965 56.4544 45.7631 56.2941 45.6918C56.136 45.6206 56.0135 45.5226 55.9311 45.4001C55.8465 45.2754 55.8064 45.1329 55.8064 44.9703H56.3253C56.3253 45.2487 56.4923 45.3867 56.8241 45.3867C56.9466 45.3867 57.0446 45.3622 57.1136 45.311C57.1827 45.262 57.2183 45.1908 57.2183 45.1017Z" fill="#EEAF15"/>
<path d="M60.6233 44.5583C60.6233 44.8077 60.5788 45.026 60.492 45.213C60.4029 45.4001 60.2782 45.5426 60.1156 45.6451C59.9508 45.7475 59.7637 45.7965 59.5544 45.7965C59.3451 45.7965 59.158 45.7475 58.9954 45.6473C58.8307 45.5471 58.7037 45.4023 58.6146 45.2153C58.5233 45.0304 58.4788 44.8166 58.4766 44.5739V44.4492C58.4766 44.1998 58.5211 43.9815 58.6102 43.7922C58.7015 43.6052 58.8262 43.4582 58.991 43.358C59.1536 43.2578 59.3406 43.2065 59.55 43.2065C59.7615 43.2065 59.9464 43.2578 60.1089 43.358C60.2737 43.4582 60.3984 43.6052 60.4897 43.7922C60.5788 43.9815 60.6233 44.1998 60.6233 44.447V44.5583ZM60.0978 44.4447C60.0978 44.1797 60.0488 43.9793 59.9553 43.8412C59.8595 43.7032 59.7259 43.6363 59.55 43.6363C59.3763 43.6363 59.2404 43.7032 59.1469 43.839C59.0511 43.9748 59.0044 44.173 59.0021 44.4358V44.5583C59.0021 44.8166 59.0511 45.0171 59.1446 45.1596C59.2404 45.3021 59.3763 45.3711 59.5544 45.3711C59.7281 45.3711 59.8617 45.3043 59.9553 45.1663C60.0488 45.0304 60.0956 44.83 60.0978 44.5672V44.4447Z" fill="#EEAF15"/>
<path d="M63.5161 45.7631H62.995L61.9862 44.104V45.7631H61.4673V43.2422H61.9862L62.9972 44.9035V43.2422H63.5161V45.7631Z" fill="#EEAF15"/>
<path d="M65.888 45.2442H64.9772L64.8035 45.7631H64.2534L65.191 43.2422H65.672L66.6162 45.7631H66.0639L65.888 45.2442ZM65.1175 44.8233H65.7477L65.4315 43.8791L65.1175 44.8233Z" fill="#EEAF15"/>
<path d="M67.8343 45.3444H68.9367V45.7631H67.3154V43.2422H67.8343V45.3444Z" fill="#EEAF15"/>
<path d="M70.2506 45.7631H69.7317V43.2422H70.2506V45.7631Z" fill="#EEAF15"/>
<path d="M71.7469 45.3444H73.0185V45.7631H71.0989V45.4558L72.3437 43.6631H71.1011V43.2422H72.9896V43.5406L71.7469 45.3444Z" fill="#EEAF15"/>
<path d="M75.2544 45.2442H74.3459L74.1722 45.7631H73.6199L74.5574 43.2422H75.0384L75.9827 45.7631H75.4304L75.2544 45.2442ZM74.4862 44.8233H75.1164L74.7979 43.8791L74.4862 44.8233Z" fill="#EEAF15"/>
<path d="M76.6819 45.7631V43.2422H77.4569C77.6796 43.2422 77.8778 43.2912 78.0515 43.3914C78.2274 43.4916 78.3632 43.6341 78.4612 43.8167C78.5592 44.0016 78.6082 44.2109 78.6082 44.4447V44.5605C78.6082 44.7944 78.5614 45.0037 78.4634 45.1863C78.3677 45.3689 78.2318 45.5092 78.0559 45.6094C77.88 45.7096 77.684 45.7609 77.4635 45.7631H76.6819ZM77.2008 43.6631V45.3444H77.4524C77.6551 45.3444 77.811 45.2776 77.9178 45.1462C78.0247 45.0126 78.0804 44.8233 78.0826 44.5761V44.4425C78.0826 44.1886 78.0292 43.9927 77.9223 43.8613C77.8176 43.7299 77.6617 43.6631 77.4569 43.6631H77.2008Z" fill="#EEAF15"/>
<path d="M81.5211 44.5583C81.5211 44.8077 81.4765 45.026 81.3874 45.213C81.3006 45.4001 81.1759 45.5426 81.0111 45.6451C80.8485 45.7475 80.6614 45.7965 80.4499 45.7965C80.2406 45.7965 80.0557 45.7475 79.8909 45.6473C79.7261 45.5471 79.5992 45.4023 79.5101 45.2153C79.421 45.0304 79.3743 44.8166 79.3743 44.5739V44.4492C79.3743 44.1998 79.4188 43.9815 79.5079 43.7922C79.597 43.6052 79.7239 43.4582 79.8865 43.358C80.0513 43.2578 80.2361 43.2065 80.4477 43.2065C80.657 43.2065 80.8441 43.2578 81.0066 43.358C81.1692 43.4582 81.2961 43.6052 81.3852 43.7922C81.4743 43.9815 81.5211 44.1998 81.5211 44.447V44.5583ZM80.9933 44.4447C80.9933 44.1797 80.9465 43.9793 80.853 43.8412C80.7572 43.7032 80.6214 43.6363 80.4477 43.6363C80.2717 43.6363 80.1381 43.7032 80.0424 43.839C79.9488 43.9748 79.8998 44.173 79.8998 44.4358V44.5583C79.8998 44.8166 79.9466 45.0171 80.0424 45.1596C80.1359 45.3021 80.2717 45.3711 80.4499 45.3711C80.6236 45.3711 80.7572 45.3043 80.853 45.1663C80.9443 45.0304 80.9933 44.83 80.9933 44.5672V44.4447Z" fill="#EEAF15"/>
</g>
<defs>
<clipPath id="clip0_9202_1172">
<rect width="104.074" height="45.5879" fill="white" transform="translate(0.0795898 0.208496)"/>
</clipPath>
</defs>
</svg>
