<svg width="176" height="28" viewBox="0 0 176 28" fill="none" xmlns="http://www.w3.org/2000/svg">
<path d="M10.8028 0H21.2512L26.2681 3.37281V24.2095L21.063 27.5687H10.9473L13.8266 22.6717H19.6916L21.4202 21.5593V5.97672L19.7952 4.89698H13.663L10.8028 0Z" fill="#EEAF15"/>
<path d="M8.10074 13.7666L0 0H5.61408L13.7148 13.7666L5.59227 27.5687H0L8.10074 13.7666Z" fill="#EEAF15"/>
<path d="M34.2925 13.5403L42.2624 0H36.6456L28.6785 13.5403L36.9319 27.5687H42.5487L34.2925 13.5403Z" fill="#EEAF15"/>
<path d="M48.722 5.65084H53.7254V18.7631H57.6217V5.65084H62.4614V1.74634H48.722V5.65084Z" fill="white"/>
<path d="M66.3468 18.7631H70.254V12.7864L76.1817 18.7631H80.0889V16.4237L75.8736 12.2029H80.0889V1.74634H66.3468V18.7631ZM76.1817 5.65084V8.30383H70.254V5.65084H76.1817Z" fill="white"/>
<path d="M83.9716 18.7631H87.8761V15.4857H93.8037V18.7631H97.711V1.74634H83.9716V18.7631ZM93.8037 5.65084V12.2029H87.8761V5.65084H93.8037Z" fill="white"/>
<path d="M101.596 18.7849H105.504V1.74634H101.596V18.7849Z" fill="white"/>
<path d="M109.386 18.7631H113.294V9.51171L119.221 15.4857V18.7631H123.126V1.74634H119.221V9.43537L113.294 3.46137V1.74634H109.386V18.7631Z" fill="white"/>
<path d="M127.011 18.7631H140.75V14.8531H131.055L131.074 12.2029H137.479V8.30383H130.916V5.65084H140.75V1.74634H127.011V18.7631Z" fill="white"/>
<path d="M144.636 18.7631H148.543V12.7864L154.471 18.7631H158.375V16.4237L154.163 12.2029H158.375V1.74634H144.636V18.7631ZM154.471 5.65084V8.30383H148.543V5.65084H154.471Z" fill="white"/>
<path d="M162.261 12.2029H172.093V14.8668L162.261 14.8531V18.7631H176V8.30383H166.165V5.65084H176L175.978 1.74634H162.261V12.2029Z" fill="white"/>
<path d="M72.2199 23.3762H71.2738V25.9474H70.6385V23.3762H69.706V22.8608H72.2199V23.3762Z" fill="#EEAF15"/>
<path d="M74.2922 24.8185H73.785V25.9474H73.1497V22.8608H74.2976C74.6602 22.8608 74.9438 22.9426 75.1401 23.1035C75.3392 23.2671 75.4373 23.4961 75.4373 23.7933C75.4373 24.0033 75.391 24.1805 75.301 24.3196C75.2083 24.4614 75.072 24.5731 74.8866 24.6577L75.5546 25.9174V25.9474H74.8702L74.2922 24.8185ZM73.785 24.3005H74.2976C74.4585 24.3005 74.5812 24.2623 74.6712 24.1805C74.7584 24.0987 74.802 23.9869 74.802 23.8451C74.802 23.6979 74.7584 23.5861 74.6766 23.5016C74.5948 23.4198 74.4694 23.3762 74.2976 23.3762H73.785V24.3005Z" fill="#EEAF15"/>
<path d="M78.3466 24.6059H77.1251V25.4348H78.5566V25.9474H76.4898V22.8608H78.5538V23.3762H77.1251V24.1096H78.3466V24.6059Z" fill="#EEAF15"/>
<path d="M80.1761 25.9474H79.5408V22.8608H80.1761V25.9474Z" fill="#EEAF15"/>
<path d="M83.8434 25.9474H83.2081L81.9703 23.916V25.9474H81.335V22.8608H81.9703L83.2081 24.8949V22.8608H83.8434V25.9474Z" fill="#EEAF15"/>
<path d="M86.7473 25.3121H85.6321L85.4194 25.9474H84.7459L85.8938 22.8608H86.4828L87.6389 25.9474H86.9627L86.7473 25.3121ZM85.8039 24.7967H86.5755L86.1883 23.6406L85.8039 24.7967Z" fill="#EEAF15"/>
<path d="M89.3239 22.8608L90.1174 25.0994L90.9054 22.8608H91.7397V25.9474H91.1044V25.1021L91.1671 23.6461L90.3355 25.9474H89.8965L89.0676 23.6488L89.1303 25.1021V25.9474H88.495V22.8608H89.3239Z" fill="#EEAF15"/>
<path d="M94.7226 24.6059H93.5011V25.4348H94.9326V25.9474H92.8658V22.8608H94.9298V23.3762H93.5011V24.1096H94.7226V24.6059Z" fill="#EEAF15"/>
<path d="M98.3845 25.9474H97.7492L96.5113 23.916V25.9474H95.876V22.8608H96.5113L97.7519 24.8949V22.8608H98.3845V25.9474Z" fill="#EEAF15"/>
<path d="M101.771 23.3762H100.825V25.9474H100.189V23.3762H99.257V22.8608H101.771V23.3762Z" fill="#EEAF15"/>
<path d="M105.176 24.4724C105.176 24.7778 105.122 25.045 105.016 25.2741C104.906 25.5031 104.754 25.6776 104.555 25.803C104.353 25.9284 104.124 25.9884 103.865 25.9884C103.611 25.9884 103.382 25.9284 103.181 25.8057C102.981 25.683 102.826 25.5058 102.714 25.2768C102.605 25.0505 102.551 24.7887 102.548 24.4915V24.3388C102.548 24.0334 102.602 23.7662 102.712 23.5345C102.821 23.3054 102.976 23.1255 103.175 23.0028C103.377 22.8801 103.606 22.8174 103.862 22.8174C104.118 22.8174 104.348 22.8801 104.547 23.0028C104.748 23.1255 104.901 23.3054 105.01 23.5345C105.122 23.7662 105.176 24.0334 105.176 24.3361V24.4724ZM104.533 24.3334C104.533 24.0089 104.473 23.7635 104.358 23.5945C104.241 23.4254 104.078 23.3436 103.862 23.3436C103.65 23.3436 103.483 23.4254 103.369 23.5917C103.251 23.7581 103.194 24.0007 103.191 24.3225V24.4724C103.191 24.7887 103.249 25.0341 103.366 25.2086C103.483 25.3831 103.65 25.4676 103.865 25.4676C104.08 25.4676 104.244 25.3858 104.358 25.2168C104.473 25.0505 104.53 24.8051 104.533 24.4833V24.3334Z" fill="#EEAF15"/>
<path d="M107.925 24.8622V25.9474H107.29V22.8608H108.492C108.724 22.8608 108.928 22.9017 109.103 22.989C109.28 23.0735 109.414 23.1935 109.509 23.3489C109.604 23.5043 109.651 23.6843 109.651 23.8833C109.651 24.186 109.547 24.4232 109.34 24.6004C109.135 24.7749 108.846 24.8622 108.481 24.8622H107.925ZM107.925 24.3441H108.492C108.661 24.3441 108.789 24.3059 108.876 24.2269C108.966 24.1478 109.01 24.0333 109.01 23.8888C109.01 23.7361 108.964 23.6134 108.876 23.5207C108.786 23.428 108.664 23.3789 108.506 23.3762H107.925V24.3441Z" fill="#EEAF15"/>
<path d="M112.514 24.6059H111.292V25.4348H112.726V25.9474H110.657V22.8608H112.721V23.3762H111.292V24.1096H112.514V24.6059Z" fill="#EEAF15"/>
<path d="M114.809 24.8185H114.302V25.9474H113.667V22.8608H114.812C115.178 22.8608 115.458 22.9426 115.657 23.1035C115.854 23.2671 115.952 23.4961 115.952 23.7933C115.952 24.0033 115.908 24.1805 115.816 24.3196C115.726 24.4614 115.589 24.5731 115.404 24.6577L116.072 25.9174V25.9474H115.388L114.809 24.8185ZM114.302 24.3005H114.815C114.976 24.3005 115.099 24.2623 115.186 24.1805C115.273 24.0987 115.319 23.9869 115.319 23.8451C115.319 23.6979 115.276 23.5861 115.194 23.5016C115.112 23.4198 114.984 23.3762 114.812 23.3762H114.302V24.3005Z" fill="#EEAF15"/>
<path d="M118.608 25.1377C118.608 25.0178 118.564 24.9251 118.48 24.8596C118.395 24.7969 118.242 24.7287 118.021 24.6578C117.801 24.5869 117.626 24.5161 117.498 24.4452C117.149 24.257 116.974 24.0007 116.974 23.679C116.974 23.5127 117.021 23.3654 117.113 23.2346C117.206 23.1037 117.343 23.0001 117.52 22.9264C117.694 22.8528 117.891 22.8174 118.111 22.8174C118.332 22.8174 118.529 22.8583 118.7 22.9374C118.872 23.0164 119.006 23.1309 119.101 23.2755C119.197 23.42 119.243 23.5863 119.243 23.7717H118.61C118.61 23.6299 118.564 23.5208 118.474 23.4418C118.387 23.3627 118.261 23.3245 118.101 23.3245C117.945 23.3245 117.825 23.3573 117.738 23.4227C117.651 23.4881 117.61 23.5754 117.61 23.6844C117.61 23.7826 117.659 23.8671 117.76 23.9353C117.861 24.0035 118.011 24.0662 118.207 24.1262C118.567 24.2352 118.831 24.3688 118.998 24.5324C119.161 24.6933 119.243 24.8923 119.243 25.1323C119.243 25.3995 119.145 25.6094 118.94 25.7621C118.739 25.9148 118.469 25.9884 118.125 25.9884C117.888 25.9884 117.672 25.9475 117.476 25.8603C117.283 25.773 117.133 25.653 117.032 25.5031C116.928 25.3504 116.879 25.1759 116.879 24.9769H117.514C117.514 25.3177 117.719 25.4867 118.125 25.4867C118.275 25.4867 118.395 25.4567 118.48 25.394C118.564 25.334 118.608 25.2468 118.608 25.1377Z" fill="#EEAF15"/>
<path d="M122.777 24.4724C122.777 24.7778 122.722 25.045 122.616 25.2741C122.507 25.5031 122.354 25.6776 122.155 25.803C121.953 25.9284 121.724 25.9884 121.468 25.9884C121.212 25.9884 120.983 25.9284 120.783 25.8057C120.582 25.683 120.426 25.5058 120.317 25.2768C120.205 25.0505 120.151 24.7887 120.148 24.4915V24.3388C120.148 24.0334 120.203 23.7662 120.312 23.5345C120.424 23.3054 120.576 23.1255 120.778 23.0028C120.977 22.8801 121.206 22.8174 121.462 22.8174C121.721 22.8174 121.948 22.8801 122.147 23.0028C122.349 23.1255 122.501 23.3054 122.613 23.5345C122.722 23.7662 122.777 24.0334 122.777 24.3361V24.4724ZM122.133 24.3334C122.133 24.0089 122.073 23.7635 121.959 23.5945C121.841 23.4254 121.678 23.3436 121.462 23.3436C121.25 23.3436 121.083 23.4254 120.969 23.5917C120.852 23.7581 120.794 24.0007 120.792 24.3225V24.4724C120.792 24.7887 120.852 25.0341 120.966 25.2086C121.083 25.3831 121.25 25.4676 121.468 25.4676C121.681 25.4676 121.844 25.3858 121.959 25.2168C122.073 25.0505 122.13 24.8051 122.133 24.4833V24.3334Z" fill="#EEAF15"/>
<path d="M126.319 25.9474H125.68L124.445 23.916V25.9474H123.81V22.8608H124.445L125.683 24.8949V22.8608H126.319V25.9474Z" fill="#EEAF15"/>
<path d="M129.222 25.3121H128.107L127.895 25.9474H127.221L128.369 22.8608H128.958L130.114 25.9474H129.438L129.222 25.3121ZM128.279 24.7967H129.051L128.663 23.6406L128.279 24.7967Z" fill="#EEAF15"/>
<path d="M131.605 25.4348H132.955V25.9474H130.97V22.8608H131.605V25.4348Z" fill="#EEAF15"/>
<path d="M134.564 25.9474H133.928V22.8608H134.564V25.9474Z" fill="#EEAF15"/>
<path d="M136.396 25.4348H137.953V25.9474H135.603V25.5711L137.127 23.3762H135.605V22.8608H137.918V23.2262L136.396 25.4348Z" fill="#EEAF15"/>
<path d="M140.69 25.3121H139.578L139.365 25.9474H138.689L139.837 22.8608H140.426L141.582 25.9474H140.906L140.69 25.3121ZM139.75 24.7967H140.521L140.132 23.6406L139.75 24.7967Z" fill="#EEAF15"/>
<path d="M142.438 25.9474V22.8608H143.387C143.66 22.8608 143.902 22.9208 144.115 23.0435C144.33 23.1662 144.497 23.3407 144.617 23.5643C144.737 23.7906 144.797 24.0469 144.797 24.3332V24.475C144.797 24.7613 144.739 25.0176 144.619 25.2412C144.502 25.4647 144.336 25.6365 144.121 25.7592C143.905 25.8819 143.665 25.9446 143.395 25.9474H142.438ZM143.074 23.3762V25.4348H143.382C143.63 25.4348 143.821 25.353 143.951 25.1921C144.082 25.0285 144.151 24.7967 144.153 24.4941V24.3305C144.153 24.0196 144.088 23.7797 143.957 23.6188C143.829 23.458 143.638 23.3762 143.387 23.3762H143.074Z" fill="#EEAF15"/>
<path d="M148.363 24.4724C148.363 24.7778 148.309 25.045 148.2 25.2741C148.093 25.5031 147.94 25.6776 147.739 25.803C147.54 25.9284 147.311 25.9884 147.052 25.9884C146.795 25.9884 146.569 25.9284 146.367 25.8057C146.165 25.683 146.01 25.5058 145.901 25.2768C145.792 25.0505 145.735 24.7887 145.735 24.4915V24.3388C145.735 24.0334 145.789 23.7662 145.898 23.5345C146.007 23.3054 146.163 23.1255 146.362 23.0028C146.564 22.8801 146.79 22.8174 147.049 22.8174C147.305 22.8174 147.534 22.8801 147.733 23.0028C147.932 23.1255 148.088 23.3054 148.197 23.5345C148.306 23.7662 148.363 24.0334 148.363 24.3361V24.4724ZM147.717 24.3334C147.717 24.0089 147.66 23.7635 147.545 23.5945C147.428 23.4254 147.262 23.3436 147.049 23.3436C146.833 23.3436 146.67 23.4254 146.553 23.5917C146.438 23.7581 146.378 24.0007 146.378 24.3225V24.4724C146.378 24.7887 146.435 25.0341 146.553 25.2086C146.667 25.3831 146.833 25.4676 147.052 25.4676C147.264 25.4676 147.428 25.3858 147.545 25.2168C147.657 25.0505 147.717 24.8051 147.717 24.4833V24.3334Z" fill="#EEAF15"/>
</svg>
